<svg width="16" height="16" viewBox="0 0 16 16" fill="none" xmlns="http://www.w3.org/2000/svg">
<g clip-path="url(#clip0_3944_15407)">
<path d="M8.99984 4.66667C9.18393 4.66667 9.33317 4.51743 9.33317 4.33333C9.33317 4.14924 9.18393 4 8.99984 4C8.81574 4 8.6665 4.14924 8.6665 4.33333C8.6665 4.51743 8.81574 4.66667 8.99984 4.66667Z" fill="#165941" stroke="#165941" stroke-linecap="round" stroke-linejoin="round"/>
<path d="M11.6668 7.33366C11.8509 7.33366 12.0002 7.18442 12.0002 7.00033C12.0002 6.81623 11.8509 6.66699 11.6668 6.66699C11.4827 6.66699 11.3335 6.81623 11.3335 7.00033C11.3335 7.18442 11.4827 7.33366 11.6668 7.33366Z" fill="#165941" stroke="#165941" stroke-linecap="round" stroke-linejoin="round"/>
<path d="M5.66683 5.33366C5.85092 5.33366 6.00016 5.18442 6.00016 5.00033C6.00016 4.81623 5.85092 4.66699 5.66683 4.66699C5.48273 4.66699 5.3335 4.81623 5.3335 5.00033C5.3335 5.18442 5.48273 5.33366 5.66683 5.33366Z" fill="#165941" stroke="#165941" stroke-linecap="round" stroke-linejoin="round"/>
<path d="M4.33333 8.66667C4.51743 8.66667 4.66667 8.51743 4.66667 8.33333C4.66667 8.14924 4.51743 8 4.33333 8C4.14924 8 4 8.14924 4 8.33333C4 8.51743 4.14924 8.66667 4.33333 8.66667Z" fill="#165941" stroke="#165941" stroke-linecap="round" stroke-linejoin="round"/>
<path d="M8.00016 1.33301C4.3335 1.33301 1.3335 4.33301 1.3335 7.99968C1.3335 11.6663 4.3335 14.6663 8.00016 14.6663C8.6175 14.6663 9.09883 14.169 9.09883 13.541C9.09883 13.2497 8.97883 12.9843 8.8075 12.791C8.61416 12.5983 8.5155 12.3563 8.5155 12.041C8.51297 11.8943 8.54001 11.7485 8.59499 11.6125C8.64998 11.4764 8.7318 11.3528 8.83556 11.2491C8.93933 11.1453 9.06292 11.0635 9.19898 11.0085C9.33504 10.9535 9.48077 10.9265 9.6275 10.929H10.9582C12.9922 10.929 14.6615 9.26034 14.6615 7.22634C14.6435 4.00767 11.6408 1.33301 8.00016 1.33301Z" stroke="#165941" stroke-width="1.5" stroke-linecap="round" stroke-linejoin="round"/>
</g>
<defs>
<clipPath id="clip0_3944_15407">
<rect width="16" height="16" fill="white"/>
</clipPath>
</defs>
</svg>
