<svg width="375" height="307" viewBox="0 0 375 307" fill="none" xmlns="http://www.w3.org/2000/svg">
<path d="M414.212 105.639C441.5 174.744 428.551 263.835 275.775 263.835C123 263.835 84.3326 353.636 9.06692 239.219C-45.1784 156.747 43.6497 92.4191 152 32.7438C260.35 -26.9315 386.925 36.5348 414.212 105.639Z" fill="white"/>
<path d="M198.732 254.03C198.732 254.987 198.448 255.922 197.917 256.718C197.385 257.514 196.629 258.134 195.745 258.499C194.861 258.865 193.888 258.961 192.949 258.773C192.011 258.586 191.149 258.125 190.473 257.448C189.797 256.771 189.337 255.908 189.151 254.969C188.965 254.031 189.062 253.058 189.429 252.174C189.796 251.291 190.417 250.536 191.213 250.005C192.01 249.474 192.945 249.192 193.902 249.193C195.184 249.195 196.412 249.706 197.318 250.613C198.224 251.519 198.732 252.749 198.732 254.03Z" fill="white"/>
<path d="M290.813 166.989C290.815 167.946 290.532 168.882 290.001 169.679C289.47 170.475 288.715 171.096 287.831 171.463C286.947 171.83 285.973 171.927 285.035 171.74C284.096 171.554 283.233 171.093 282.556 170.416C281.879 169.739 281.419 168.877 281.232 167.938C281.046 166.999 281.142 166.026 281.509 165.142C281.876 164.258 282.497 163.502 283.294 162.971C284.09 162.44 285.026 162.158 285.983 162.159C287.264 162.159 288.493 162.668 289.399 163.574C290.304 164.48 290.813 165.708 290.813 166.989Z" fill="white"/>
<path d="M336.113 112.486C336.113 113.443 335.829 114.378 335.298 115.173C334.766 115.969 334.011 116.589 333.127 116.955C332.243 117.321 331.271 117.417 330.333 117.23C329.394 117.043 328.533 116.583 327.856 115.906C327.18 115.23 326.719 114.368 326.532 113.43C326.346 112.492 326.442 111.519 326.808 110.635C327.174 109.751 327.794 108.996 328.589 108.465C329.384 107.933 330.32 107.649 331.276 107.649C331.912 107.648 332.541 107.773 333.128 108.016C333.716 108.258 334.249 108.615 334.698 109.064C335.148 109.513 335.504 110.047 335.747 110.634C335.989 111.221 336.114 111.851 336.113 112.486Z" fill="white"/>
<path d="M283.568 117.498C283.568 118.455 283.284 119.39 282.753 120.185C282.221 120.98 281.466 121.6 280.582 121.967C279.698 122.333 278.726 122.428 277.788 122.242C276.849 122.055 275.988 121.594 275.311 120.918C274.635 120.242 274.174 119.38 273.987 118.442C273.801 117.503 273.897 116.531 274.263 115.647C274.629 114.763 275.249 114.008 276.044 113.476C276.84 112.945 277.775 112.661 278.731 112.661C280.014 112.661 281.244 113.171 282.151 114.078C283.059 114.985 283.568 116.215 283.568 117.498Z" fill="white"/>
<path d="M242.754 51.9528C242.755 52.9097 242.473 53.8456 241.942 54.6419C241.411 55.4382 240.656 56.0593 239.773 56.4264C238.889 56.7936 237.916 56.8904 236.978 56.7045C236.039 56.5187 235.176 56.0586 234.499 55.3824C233.822 54.7063 233.361 53.8445 233.174 52.906C232.986 51.9676 233.082 50.9947 233.448 50.1105C233.813 49.2263 234.433 48.4705 235.229 47.9387C236.025 47.4069 236.96 47.1231 237.917 47.1231C238.552 47.1221 239.18 47.2464 239.767 47.4887C240.354 47.731 240.887 48.0866 241.337 48.5352C241.786 48.9837 242.142 49.5165 242.385 50.1029C242.628 50.6894 242.754 51.318 242.754 51.9528Z" fill="white"/>
<path d="M210.125 26.3434C210.126 27.3004 209.844 28.2362 209.313 29.0325C208.782 29.8288 208.027 30.4499 207.144 30.817C206.26 31.1842 205.287 31.281 204.349 31.0952C203.41 30.9093 202.547 30.4492 201.87 29.7731C201.193 29.0969 200.732 28.2351 200.545 27.2967C200.357 26.3582 200.453 25.3853 200.819 24.5011C201.185 23.6169 201.804 22.8611 202.6 22.3293C203.396 21.7975 204.331 21.5137 205.288 21.5137C205.923 21.5128 206.552 21.637 207.138 21.8793C207.725 22.1216 208.258 22.4772 208.708 22.9258C209.157 23.3744 209.513 23.9071 209.756 24.4935C210 25.08 210.125 25.7086 210.125 26.3434Z" fill="white"/>
<path d="M119.939 89.8671C119.939 90.824 119.655 91.7594 119.124 92.555C118.592 93.3505 117.836 93.9705 116.952 94.3363C116.068 94.7022 115.095 94.7976 114.156 94.6104C113.218 94.4232 112.356 93.9618 111.68 93.2847C111.004 92.6076 110.544 91.7451 110.358 90.8064C110.172 89.8676 110.269 88.8949 110.636 88.0112C111.003 87.1275 111.624 86.3726 112.42 85.842C113.217 85.3114 114.153 85.0289 115.109 85.0303C115.744 85.0303 116.373 85.1554 116.959 85.3986C117.546 85.6417 118.078 85.9981 118.527 86.4474C118.976 86.8966 119.331 87.4299 119.574 88.0166C119.816 88.6034 119.94 89.2322 119.939 89.8671Z" fill="white"/>
<path d="M111.754 152.928C111.755 153.886 111.472 154.822 110.941 155.618C110.41 156.415 109.655 157.036 108.771 157.403C107.887 157.77 106.914 157.866 105.975 157.68C105.036 157.493 104.174 157.032 103.497 156.356C102.82 155.679 102.359 154.816 102.173 153.877C101.986 152.938 102.083 151.965 102.45 151.081C102.817 150.197 103.438 149.442 104.234 148.911C105.031 148.38 105.967 148.097 106.924 148.099C108.204 148.1 109.432 148.61 110.337 149.515C111.242 150.421 111.752 151.648 111.754 152.928Z" fill="white"/>
<path d="M121.561 190.668C121.561 191.625 121.277 192.56 120.746 193.356C120.214 194.151 119.458 194.771 118.574 195.137C117.69 195.503 116.717 195.598 115.778 195.411C114.84 195.224 113.978 194.763 113.302 194.085C112.626 193.408 112.166 192.546 111.98 191.607C111.794 190.668 111.891 189.696 112.258 188.812C112.625 187.928 113.246 187.173 114.042 186.643C114.839 186.112 115.775 185.83 116.732 185.831C117.366 185.831 117.995 185.956 118.581 186.199C119.168 186.443 119.701 186.799 120.149 187.248C120.598 187.697 120.953 188.231 121.196 188.817C121.438 189.404 121.562 190.033 121.561 190.668Z" fill="white"/>
<path d="M86.8329 241.682C89.5042 241.682 91.6697 239.517 91.6697 236.846C91.6697 234.174 89.5042 232.009 86.8329 232.009C84.1616 232.009 81.9961 234.174 81.9961 236.846C81.9961 239.517 84.1616 241.682 86.8329 241.682Z" fill="white"/>
<path d="M116.731 190.667L86.833 236.845L193.895 254.03L285.983 166.989L278.732 117.498L331.276 112.471L237.917 51.959L115.11 89.867L106.924 152.928L116.731 190.667Z" stroke="white" stroke-linecap="round" stroke-linejoin="round"/>
<path d="M205.288 26.3438L237.917 51.9527" stroke="white" stroke-linecap="round" stroke-linejoin="round"/>
<path d="M193.895 254.03L185.604 203.093" stroke="white" stroke-linecap="round" stroke-linejoin="round"/>
<path d="M115.109 89.8672L143.295 115.364" stroke="white" stroke-linecap="round" stroke-linejoin="round"/>
<path d="M267.725 306.47C287.804 306.47 304.081 303.836 304.081 300.587C304.081 297.338 287.804 294.704 267.725 294.704C247.646 294.704 231.368 297.338 231.368 300.587C231.368 303.836 247.646 306.47 267.725 306.47Z" fill="#ECEFEE"/>
<path d="M249.686 193.372C279.349 163.71 279.349 115.617 249.686 85.9538C220.024 56.291 171.931 56.291 142.268 85.9538C112.605 115.617 112.605 163.71 142.268 193.372C171.931 223.035 220.024 223.035 249.686 193.372Z" fill="white"/>
<path d="M249.686 193.372C279.349 163.71 279.349 115.617 249.686 85.9538C220.024 56.291 171.931 56.291 142.268 85.9538C112.605 115.617 112.605 163.71 142.268 193.372C171.931 223.035 220.024 223.035 249.686 193.372Z" stroke="#121B19" stroke-linecap="round" stroke-linejoin="round"/>
<path d="M157.314 94.8874C156.437 94.2275 152.232 95.6596 152.218 94.4101C152.218 93.5817 155.026 91.2511 155.58 90.1981C156.367 88.6607 155.959 86.5196 156.69 85.0735C157.298 83.8265 158.102 82.6844 159.069 81.6898C163.337 78.0815 169.852 74.1714 175.285 73.8976C177.237 73.7993 179.912 77.1549 180.354 79.7734C180.614 81.3248 180.354 85.9369 178.95 87.5515C176.886 89.9875 172.351 90.0155 169.943 91.9109C167.135 94.1152 165.773 99.317 162.544 101.037C161.646 101.514 159.94 100.574 159.357 100.082C158.276 99.1907 158.29 95.6386 157.314 94.8874Z" fill="#7EFDD0" stroke="#121B19" stroke-linecap="round" stroke-linejoin="round"/>
<path d="M245.345 173.062C244.841 172.943 244.314 172.974 243.828 173.154C242.572 173.856 240.74 176.614 240.094 177.962C239.35 179.5 238.458 182.834 238.528 184.28C238.57 185.088 239.034 186.688 239.701 186.772C240.206 186.836 241.54 185.839 242.01 185.277C244.439 182.371 247.345 177.85 247.128 174.249C247.1 173.701 245.892 173.196 245.345 173.062Z" fill="#7EFDD0" stroke="#121B19" stroke-linecap="round" stroke-linejoin="round"/>
<path d="M199.294 103.558C200.206 103.466 202.221 102.975 202.804 102.154C203.702 100.827 204.046 96.8326 203.113 95.7024C202.712 95.232 201.238 95.3303 200.733 95.7445C200.08 96.285 200.255 98.5525 199.603 99.1562C198.95 99.7599 197.104 98.9175 196.542 99.5563C195.98 100.195 195.84 102.294 196.254 102.94C196.668 103.586 198.493 103.635 199.294 103.558Z" fill="#7EFDD0" stroke="#121B19" stroke-linecap="round" stroke-linejoin="round"/>
<path d="M244.601 81.3176C243.871 81.8818 243.382 82.7022 243.233 83.6131C243.197 84.2309 244.454 86.014 244.3 86.5616C243.906 87.9024 240.79 88.8501 239.175 88.0077C238.691 87.7479 238.269 86.2737 237.806 85.9508C235.847 84.5889 232.12 85.5086 230.224 85.3962C229.321 85.4238 228.416 85.3698 227.522 85.2348C224.314 84.252 220.979 80.9315 217.694 80.7981C216.072 80.735 212.401 83.0656 211.256 84.7785C209.667 87.2077 208.789 90.0334 208.722 92.9357C208.722 94.1431 209.817 96.7055 210.772 97.3513C211.727 97.9971 214.401 98.1305 215.279 97.3513C215.89 96.8248 215.539 94.5995 216.037 93.9606C216.535 93.3218 218.564 92.1003 219.161 92.6549C220.979 94.3608 221.414 99.0852 220.319 101.149C219.147 103.36 214.268 105.642 211.741 104.463C210.807 104.027 211.579 100.538 210.786 99.703C209.993 98.8676 207.606 98.299 206.834 99.001C205.893 99.8925 207.494 103.346 206.729 104.434C205.872 105.642 202.481 105.263 201.323 106.175C200.467 106.877 199.021 108.829 198.915 109.938C198.824 110.886 200.902 112.5 200.389 113.308C199.687 114.473 196.065 112.318 195.174 113.371C193.987 114.775 194.844 119.324 196.177 120.461C197.174 121.318 200.432 121.254 201.506 120.461C202.278 119.871 201.808 117.288 202.587 116.719C203.612 115.975 206.321 117.344 207.501 117.042C208.441 116.804 209.859 114.831 210.8 115C212.064 115.224 213.889 117.772 214.128 119.085C214.31 120.061 212.099 122.146 212.822 122.82C213.713 123.641 216.704 121.907 217.146 120.791C217.708 119.387 214.535 116.425 215.04 115.007C215.255 114.691 215.546 114.433 215.885 114.258C216.225 114.083 216.603 113.995 216.985 114.003C218.817 114.438 219.933 119.619 221.779 120.138C223.085 120.51 225.36 117.843 226.693 118.159C228.252 118.531 230.765 121.374 231.249 122.932C231.586 124.02 231.165 126.625 230.4 127.306C227.774 129.643 222.882 130.191 219.287 129.966C217.574 129.854 214.093 128.457 212.836 127.235C211.965 126.386 211.783 123.381 210.807 122.813C208.266 121.339 204.222 121.577 201.428 122.497C196.514 124.126 190.491 128.815 187.718 133.378C186.722 135.035 187.718 139.471 186.729 141.1C186.413 141.612 184.995 141.9 184.721 142.434C183.878 144.055 184.103 148.246 185.009 149.819C186.995 152.963 189.945 155.381 193.419 156.712C196.865 157.892 201.611 156.01 205.261 156.818C206.42 157.077 208.912 158.425 209.551 159.541C210.386 161.009 209.094 164.863 209.888 166.344C210.533 167.565 214.1 167.523 214.584 168.71C216.381 172.992 212.092 178.755 212.745 183.325C212.969 184.87 215.356 187.27 215.553 188.731C215.967 191.44 214.465 195.112 215.518 197.548C216.22 199.141 220.277 199.78 221.8 198.952C225.093 197.232 228.708 193.076 230.224 189.763C231.628 186.737 230.428 182.041 231.958 179.373C233.201 177.267 237.181 176.221 238.501 174.073C240.467 170.893 238.95 165.045 240.797 161.725C242.243 159.134 246.448 157.625 247.817 154.901C248.364 153.827 248.09 150.598 247.311 149.987C245.402 148.429 240.902 149.517 239.077 147.797C238.276 147.046 239.449 143.676 238.95 142.448C238.452 141.219 236.03 139.949 235.623 138.776C235.216 137.604 234.977 134.326 235.953 133.406C236.388 133.006 237.841 133.132 238.333 133.406C240.972 134.887 243.19 138.145 244.075 141.072C244.377 142.069 243.008 144.505 243.577 145.396C243.991 146.049 245.788 146.477 246.56 146.358C249.944 145.831 255.749 143.297 256.297 140.658C256.999 137.421 248.168 133.757 249.108 130.128C249.403 128.976 253.882 129.019 255.188 129.861C256.1 130.451 256.023 133.013 256.683 133.792C258.48 135.898 261.288 137.337 263.822 138.65C265.016 139.261 268.189 139.436 268.856 140.531C269.726 141.935 267.178 145.733 267.669 147.214C268.39 149.174 269.434 150.998 270.758 152.613C273.035 139.479 271.817 125.977 267.226 113.463C262.635 100.949 254.832 89.8624 244.601 81.3176Z" fill="#7EFDD0" stroke="#121B19" stroke-linecap="round" stroke-linejoin="round"/>
<path d="M156.226 188.759C153.418 186.063 150.098 181.795 149.789 178.397C149.431 174.466 157.104 172.683 157.511 168.289C157.658 166.702 153.84 162.546 154.148 160.882C154.457 159.219 158.711 157.534 158.522 155.737C158.143 152.065 154.247 147.931 151.186 145.958C149.536 144.891 144.763 146.218 143.331 144.835C142.629 144.175 143.745 142.027 143.05 141.416C142.158 140.63 139.413 141.795 138.297 141.346C137.006 140.826 135.644 138.06 134.408 137.653C130.231 136.249 124.131 139.696 120.031 138.06C120.031 138.594 120.031 139.127 120.031 139.661V140.033C120.752 140.389 121.35 140.951 121.751 141.648C121.863 142.25 121.84 142.869 121.685 143.461C121.53 144.053 121.245 144.604 120.853 145.073C120.667 145.19 120.454 145.253 120.235 145.256C120.389 147.425 120.642 149.566 120.979 151.679C123.085 153.006 125.823 153.891 127.192 155.716C128.027 156.832 126.244 159.401 127.192 160.489C129.08 162.63 133.334 162.813 135.426 164.701C140.34 169.131 141.119 178.088 146.623 183.15C147.585 184.034 149.887 184.884 150.835 185.796C152.162 187.088 152.709 189.496 154.134 190.71C156.577 192.816 160.712 196.326 162.98 196.13C163.387 196.095 161.828 192.62 160.523 191.216C159.547 190.219 157.258 189.707 156.226 188.759Z" fill="#7EFDD0" stroke="#121B19" stroke-linecap="round" stroke-linejoin="round"/>
<path d="M122.839 126.007C123.5 126.231 124.221 126.201 124.861 125.923C125.823 125.172 124.973 122.694 125.774 121.837C129.164 118.201 135.995 118.454 139.175 114.53C140.066 113.427 138.704 110.577 139.877 109.742C143.675 107.123 149.705 112.606 153.032 110.198C154.998 108.794 156.746 103.88 155.84 101.669C155.672 101.255 153.538 102.245 153.109 101.936C152.246 101.311 153.685 97.4709 152.899 97.2042C150.631 96.432 146.855 98.4327 144.475 99.7314C143.822 100.096 142.671 101.543 142.032 101.746C140.677 102.174 138.023 101.248 138.733 100.272C140.319 98.1027 144.426 97.5341 146.686 95.7932C148.673 94.2558 152.176 91.0617 152.134 89.426C152.071 87.1937 142.586 89.7068 140.2 90.9002C138.796 91.6022 135.777 94.5155 134.345 95.2105C128.122 103.803 123.779 113.61 121.597 123.992C121.976 124.814 122.257 125.762 122.839 126.007Z" fill="#7EFDD0" stroke="#121B19" stroke-linecap="round" stroke-linejoin="round"/>
<path d="M148.153 222.834L157.567 208.878" stroke="#ADB3B1" stroke-linecap="round" stroke-linejoin="round"/>
<path d="M102.832 136.403L117.56 136.621" stroke="#121B19" stroke-linecap="round" stroke-linejoin="round"/>
<path d="M146.566 56.9932L155.65 71.5597" stroke="#ADB3B1" stroke-linecap="round" stroke-linejoin="round"/>
<path d="M293.221 138.348L274.814 138.572" stroke="#ADB3B1" stroke-linecap="round" stroke-linejoin="round"/>
<path d="M98.3037 190.366L113.741 211.419L122.109 222.827" stroke="#ADB3B1" stroke-linecap="round" stroke-linejoin="round"/>
<path d="M124.818 58.0244L88.7988 103.718" stroke="#ADB3B1" stroke-linecap="round" stroke-linejoin="round"/>
<path d="M246.938 232.647L158.865 236.501" stroke="#ADB3B1" stroke-linecap="round" stroke-linejoin="round"/>
<path d="M283.568 213.23L311.599 160.384" stroke="#ADB3B1" stroke-linecap="round" stroke-linejoin="round"/>
<path d="M313.783 117.751L312.85 100.622" stroke="#ADB3B1" stroke-linecap="round" stroke-linejoin="round"/>
<path d="M251.705 83.374L260.606 76.8945" stroke="#ADB3B1" stroke-linecap="round" stroke-linejoin="round"/>
<path d="M158.718 38.4531L260.241 40.2081" stroke="#ADB3B1" stroke-linecap="round" stroke-linejoin="round"/>
<path d="M331.959 147.033C336.457 137.431 332.319 126 322.717 121.502C313.114 117.004 301.684 121.142 297.186 130.744C292.687 140.347 296.825 151.777 306.428 156.275C316.03 160.773 327.461 156.636 331.959 147.033Z" fill="#7EFDD0"/>
<path opacity="0.2" d="M331.959 147.033C336.457 137.431 332.319 126 322.717 121.502C313.114 117.004 301.684 121.142 297.186 130.744C292.687 140.347 296.825 151.777 306.428 156.275C316.03 160.773 327.461 156.636 331.959 147.033Z" fill="white"/>
<path d="M314.653 158.207C316.392 158.208 318.123 157.972 319.799 157.505L318.725 151.236L309.683 151.77L309.332 157.456C311.062 157.953 312.853 158.206 314.653 158.207Z" fill="white"/>
<path d="M307.907 151.342C309.55 154.087 311.965 155.821 314.667 155.821C317.37 155.821 319.785 154.087 321.435 151.342H307.907Z" fill="#121B19" stroke="#121B19" stroke-linecap="round" stroke-linejoin="round"/>
<path d="M314.653 158.207C316.392 158.208 318.123 157.972 319.799 157.505L318.725 151.236L309.683 151.77L309.332 157.456C311.062 157.953 312.853 158.206 314.653 158.207V158.207Z" stroke="#121B19" stroke-linecap="round" stroke-linejoin="round"/>
<path d="M325.38 141.163C325.002 140.985 324.573 140.953 324.173 141.072C323.927 134.164 319.638 128.66 314.345 128.66C309.052 128.66 304.79 134.164 304.517 141.072C304.114 140.952 303.682 140.985 303.302 141.163C302.27 141.668 301.996 143.206 302.677 144.589C302.879 145.085 303.219 145.514 303.657 145.824C304.095 146.134 304.613 146.312 305.148 146.337C306.552 151.251 310.126 154.718 314.31 154.718C318.493 154.718 322.032 151.208 323.478 146.337C324.012 146.31 324.528 146.132 324.965 145.822C325.401 145.512 325.74 145.084 325.942 144.589C326.693 143.206 326.412 141.668 325.38 141.163Z" fill="white" stroke="#121B19" stroke-linecap="round" stroke-linejoin="round"/>
<path d="M313.032 142.539L312.954 142.911C312.708 144.084 312.249 145.203 311.6 146.211V146.211L313.565 147.285" stroke="#121B19" stroke-linecap="round" stroke-linejoin="round"/>
<path d="M311.34 149.889C312.175 150.248 313.074 150.434 313.983 150.434C314.892 150.434 315.791 150.248 316.626 149.889" stroke="#121B19" stroke-linecap="round" stroke-linejoin="round"/>
<path d="M309.311 141.556C309.311 142.075 309.115 142.497 308.869 142.497C308.624 142.497 308.42 142.075 308.42 141.556C308.42 141.036 308.616 140.615 308.869 140.615C309.122 140.615 309.311 141.036 309.311 141.556Z" fill="#121B19"/>
<path d="M316.795 141.556C316.795 142.075 316.591 142.497 316.346 142.497C316.1 142.497 315.896 142.075 315.896 141.556C315.896 141.036 316.1 140.615 316.346 140.615C316.591 140.615 316.795 141.036 316.795 141.556Z" fill="#121B19"/>
<path d="M307.991 139.731C308.329 139.086 308.878 138.577 309.546 138.288C310.214 137.999 310.962 137.949 311.663 138.144" stroke="#121B19" stroke-linecap="round" stroke-linejoin="round"/>
<path d="M319.588 139.731C319.25 139.086 318.702 138.577 318.033 138.288C317.365 137.999 316.618 137.949 315.917 138.144" stroke="#121B19" stroke-linecap="round" stroke-linejoin="round"/>
<path d="M306.616 140.005H304.629" stroke="#121B19" stroke-linecap="round" stroke-linejoin="round"/>
<path d="M312.554 140.005H307.029V143.564H312.554V140.005Z" stroke="#121B19" stroke-linecap="round" stroke-linejoin="round"/>
<path d="M320.508 140.005H314.983V143.564H320.508V140.005Z" stroke="#121B19" stroke-linecap="round" stroke-linejoin="round"/>
<path d="M312.562 141.051H314.983" stroke="#121B19" stroke-linecap="round" stroke-linejoin="round"/>
<path d="M323.828 140.005H320.508" stroke="#121B19" stroke-linecap="round" stroke-linejoin="round"/>
<path d="M305.268 141.05C305.97 141.113 308.027 136.501 307.234 133.433C306.44 130.366 314.113 132.696 318.901 132.142C323.689 131.587 320.558 138.916 323.26 140.657C325.963 142.398 325.366 129.994 322.769 129.622C322.769 129.622 320.831 125.936 313.355 126.245C305.879 126.554 304.889 131.285 304.889 131.285C304.889 131.285 301.225 140.657 305.268 141.05Z" fill="#121B19" stroke="#121B19" stroke-linecap="round" stroke-linejoin="round"/>
<path d="M135.082 58.2779C146.864 58.2779 156.416 48.7265 156.416 36.9441C156.416 25.1618 146.864 15.6104 135.082 15.6104C123.3 15.6104 113.748 25.1618 113.748 36.9441C113.748 48.7265 123.3 58.2779 135.082 58.2779Z" fill="#7EFDD0"/>
<path opacity="0.3" d="M135.082 58.2779C146.864 58.2779 156.416 48.7265 156.416 36.9441C156.416 25.1618 146.864 15.6104 135.082 15.6104C123.3 15.6104 113.748 25.1618 113.748 36.9441C113.748 48.7265 123.3 58.2779 135.082 58.2779Z" fill="white"/>
<path d="M134.85 58.432C136.782 58.4324 138.704 58.1703 140.565 57.6527L139.343 50.71L129.29 51.3067L128.904 57.6247C130.838 58.1722 132.84 58.444 134.85 58.432Z" fill="white"/>
<path d="M127.317 51.6152C129.15 54.6619 131.831 56.5924 134.836 56.5924C137.84 56.5924 140.522 54.6619 142.347 51.6152H127.317Z" fill="#121B19" stroke="#121B19" stroke-linecap="round" stroke-linejoin="round"/>
<path d="M134.85 58.432C136.782 58.4324 138.704 58.1703 140.565 57.6527L139.343 50.71L129.29 51.3067L128.904 57.6247C130.838 58.1722 132.84 58.444 134.85 58.432Z" stroke="#121B19" stroke-linecap="round" stroke-linejoin="round"/>
<path d="M144.798 27.9578C144.798 27.9578 154.493 47.8174 148.483 51.9101C142.095 56.2625 126.785 56.4871 121.941 51.2081C117.097 45.929 121.983 33.6019 124.047 31.0115C125.554 29.2529 127.34 27.754 129.333 26.5749L135.981 25.1709L142.762 27.6279L144.798 27.9578Z" fill="#121B19" stroke="#121B19" stroke-linecap="round" stroke-linejoin="round"/>
<path d="M147.1 39.4777C146.678 39.2813 146.2 39.2439 145.752 39.3724C145.485 31.6996 140.712 25.5781 134.871 25.5781C129.031 25.5781 124.257 31.6996 123.983 39.3724C123.536 39.2439 123.057 39.2813 122.635 39.4777C121.498 40.0393 121.182 41.7452 121.933 43.2826C122.159 43.833 122.538 44.3075 123.024 44.6507C123.51 44.9938 124.084 45.1913 124.678 45.2201C126.244 50.6676 130.21 54.5426 134.864 54.5426C139.518 54.5426 143.478 50.6676 145.043 45.2201C145.638 45.1913 146.211 44.9938 146.698 44.6507C147.184 44.3075 147.562 43.833 147.788 43.2826C148.553 41.7522 148.244 40.0463 147.1 39.4777Z" fill="white" stroke="#121B19" stroke-linecap="round" stroke-linejoin="round"/>
<path d="M133.376 41.0156L131.782 45.0942L133.972 46.2876" stroke="#121B19" stroke-linecap="round" stroke-linejoin="round"/>
<path d="M131.782 49.1729C132.709 49.5749 133.709 49.7824 134.72 49.7824C135.731 49.7824 136.731 49.5749 137.658 49.1729" stroke="#121B19" stroke-linecap="round" stroke-linejoin="round"/>
<path d="M127.128 37.2809C127.687 36.6935 128.433 36.3179 129.238 36.2181C130.043 36.1183 130.858 36.3003 131.544 36.7333" stroke="#121B19" stroke-linecap="round" stroke-linejoin="round"/>
<path d="M140.368 37.3718C139.83 36.7649 139.098 36.3633 138.296 36.2354C137.495 36.1074 136.674 36.2609 135.974 36.6698" stroke="#121B19" stroke-linecap="round" stroke-linejoin="round"/>
<path d="M129.326 42.1526C128.511 42.1526 127.73 41.8297 127.154 41.2545C126.578 40.6794 126.253 39.8992 126.251 39.0849V38.1934H131.509C131.744 38.1952 131.969 38.29 132.135 38.457C132.301 38.624 132.393 38.8497 132.393 39.0849C132.393 39.8985 132.07 40.6788 131.495 41.2541C130.92 41.8294 130.139 42.1526 129.326 42.1526Z" fill="#121B19" stroke="#121B19" stroke-linecap="round" stroke-linejoin="round"/>
<path d="M138.15 42.1526C137.336 42.1526 136.556 41.8294 135.981 41.2541C135.405 40.6788 135.082 39.8985 135.082 39.0849C135.082 38.8497 135.175 38.624 135.341 38.457C135.506 38.29 135.731 38.1952 135.967 38.1934H141.225V39.0849C141.223 39.8992 140.898 40.6794 140.321 41.2545C139.745 41.8297 138.964 42.1526 138.15 42.1526Z" fill="#121B19" stroke="#121B19" stroke-linecap="round" stroke-linejoin="round"/>
<path d="M132.394 39.3584H135.082" stroke="#121B19" stroke-linecap="round" stroke-linejoin="round"/>
<path d="M126.25 38.1934H124.039" stroke="#121B19" stroke-linecap="round" stroke-linejoin="round"/>
<path d="M145.675 38.1934H141.575" stroke="#121B19" stroke-linecap="round" stroke-linejoin="round"/>
<path d="M131.537 29.3266C131.537 29.3266 136.556 35.7499 141.225 36.1851C145.893 36.6203 142.832 46.0131 141.225 46.2869C141.225 46.2869 145.437 46.4413 145.753 39.3792C145.753 39.3792 151.579 29.832 141.709 25.7745C134.092 22.6435 130.267 25.5849 130.267 25.5849C130.267 25.5849 120.579 27.9928 123.099 37.8559C123.099 37.8559 124.805 43.0296 126.644 43.6474C126.644 43.6474 123.92 37.7857 126.581 34.6477C129.242 31.5098 131.341 31.6432 131.537 29.3266Z" fill="#121B19" stroke="#121B19" stroke-linecap="round" stroke-linejoin="round"/>
<path d="M169.122 22.3H172.632C174.043 22.3 175.397 21.7394 176.395 20.7415C177.393 19.7436 177.953 18.3901 177.953 16.9788C177.953 15.5676 177.393 14.2141 176.395 13.2162C175.397 12.2183 174.043 11.6577 172.632 11.6577H172.337C171.923 10.3911 171.12 9.28773 170.041 8.50539C168.962 7.72304 167.664 7.30176 166.332 7.30176C164.999 7.30176 163.701 7.72304 162.622 8.50539C161.543 9.28773 160.74 10.3911 160.326 11.6577H160.031C159.332 11.6577 158.64 11.7953 157.995 12.0627C157.349 12.3301 156.763 12.7221 156.268 13.2162C155.774 13.7103 155.382 14.2969 155.115 14.9425C154.848 15.5881 154.71 16.2801 154.71 16.9788C154.71 17.6776 154.848 18.3696 155.115 19.0152C155.382 19.6607 155.774 20.2473 156.268 20.7415C156.763 21.2356 157.349 21.6275 157.995 21.8949C158.64 22.1624 159.332 22.3 160.031 22.3H161.491" stroke="#121B19" stroke-linecap="round" stroke-linejoin="round"/>
<path d="M171.832 20.6923L165.317 14.1777L158.803 20.6923H162.692V25.9643H167.943V20.6923H171.832Z" fill="#7EFDD0" stroke="#121B19" stroke-linecap="round" stroke-linejoin="round"/>
<path d="M135.98 263.564C147.763 263.564 157.314 254.013 157.314 242.23C157.314 230.448 147.763 220.896 135.98 220.896C124.198 220.896 114.646 230.448 114.646 242.23C114.646 254.013 124.198 263.564 135.98 263.564Z" fill="#7EFDD0"/>
<path opacity="0.2" d="M135.98 263.564C147.763 263.564 157.314 254.013 157.314 242.23C157.314 230.448 147.763 220.896 135.98 220.896C124.198 220.896 114.646 230.448 114.646 242.23C114.646 254.013 124.198 263.564 135.98 263.564Z" fill="white"/>
<path d="M135.98 263.565C137.911 263.565 139.834 263.303 141.694 262.785L140.508 255.814L130.455 256.411L130.069 262.729C131.991 263.283 133.98 263.565 135.98 263.565Z" fill="white"/>
<path d="M128.482 256.755C130.308 259.802 132.996 261.732 135.994 261.732C138.991 261.732 141.687 259.802 143.512 256.755H128.482Z" fill="#121B19" stroke="#121B19" stroke-linecap="round" stroke-linejoin="round"/>
<path d="M135.98 263.565C137.911 263.565 139.834 263.303 141.694 262.785L140.508 255.814L130.455 256.411L130.069 262.729C131.991 263.283 133.98 263.565 135.98 263.565Z" stroke="#121B19" stroke-linecap="round" stroke-linejoin="round"/>
<path d="M148.188 245.031C147.766 244.835 147.287 244.798 146.84 244.926C146.573 237.253 141.8 231.132 135.959 231.132C130.119 231.132 125.338 237.253 125.071 244.926C124.624 244.798 124.145 244.835 123.723 245.031C122.586 245.593 122.27 247.299 123.021 248.836C123.248 249.392 123.63 249.871 124.122 250.216C124.614 250.561 125.194 250.757 125.794 250.781C127.36 256.228 131.326 260.103 135.98 260.103C140.634 260.103 144.594 256.228 146.159 250.781C146.754 250.752 147.327 250.555 147.814 250.211C148.3 249.868 148.678 249.394 148.904 248.843C149.662 247.271 149.353 245.593 148.188 245.031Z" fill="white" stroke="#121B19" stroke-linecap="round" stroke-linejoin="round"/>
<path d="M135.749 246.562L137.343 250.64L135.152 251.834" stroke="#121B19" stroke-linecap="round" stroke-linejoin="round"/>
<path d="M132.892 254.719C133.819 255.121 134.819 255.328 135.829 255.328C136.84 255.328 137.84 255.121 138.767 254.719" stroke="#121B19" stroke-linecap="round" stroke-linejoin="round"/>
<path d="M132.344 245.614C132.344 246.19 132.119 246.66 131.845 246.66C131.571 246.66 131.347 246.19 131.347 245.614C131.347 245.039 131.571 244.568 131.845 244.568C132.119 244.568 132.344 245.039 132.344 245.614Z" fill="#121B19"/>
<path d="M140.606 245.614C140.606 246.19 140.382 246.66 140.108 246.66C139.834 246.66 139.609 246.19 139.609 245.614C139.609 245.039 139.834 244.568 140.108 244.568C140.382 244.568 140.606 245.039 140.606 245.614Z" fill="#121B19"/>
<path d="M129.234 243.437C129.607 242.718 130.216 242.15 130.959 241.829C131.703 241.508 132.534 241.453 133.313 241.675" stroke="#121B19" stroke-linecap="round" stroke-linejoin="round"/>
<path d="M142.123 243.437C141.75 242.718 141.141 242.15 140.398 241.829C139.654 241.508 138.823 241.453 138.044 241.675" stroke="#121B19" stroke-linecap="round" stroke-linejoin="round"/>
<path d="M124.032 243.438C124.032 243.438 125.724 246.856 126.623 246.562C127.521 246.267 126.222 239.935 128.413 238.32C130.603 236.705 138.17 238.797 141.301 236.109C141.301 236.109 141.252 239.815 143.344 241.549C145.436 243.283 144.636 246.758 145.633 246.562C146.63 246.365 146.924 243.838 147.121 242.771C147.725 239.57 148.616 230.535 143.246 230.535C143.246 230.535 141.947 228.647 134.12 228.843C126.293 229.04 126.11 226.856 126.11 226.856C126.11 226.856 120.15 235.14 124.032 243.438Z" fill="#121B19" stroke="#121B19" stroke-linecap="round" stroke-linejoin="round"/>
<path d="M330.315 72.0655V74.7963H291.108V72.0655C291.108 70.7225 291.641 69.4344 292.59 68.4841C293.539 67.5337 294.827 66.9989 296.17 66.9971H325.247C326.591 66.9971 327.88 67.5311 328.831 68.4816C329.781 69.4321 330.315 70.7213 330.315 72.0655Z" stroke="#121B19" stroke-miterlimit="10"/>
<path d="M331.284 88.4989V74.7959H290.126V93.3849" stroke="#121B19" stroke-miterlimit="10"/>
<path d="M283.218 42.3354C283.218 42.3354 284.832 38.0251 288.89 38.7131C292.947 39.401 289.845 42.7917 287.893 43.0935C287.886 43.0935 287.598 41.9072 283.218 42.3354Z" fill="white" stroke="#121B19" stroke-linecap="round" stroke-linejoin="round"/>
<path d="M280.529 44.7782C279.996 45.3117 278.711 45.3538 279.575 44.1955C280.285 43.2663 281.244 42.5578 282.341 42.1527C284.264 41.2962 285.015 41.4507 286.756 41.0856C288.497 40.7206 288.82 41.4156 289.424 41.7455C290.863 42.5318 291.207 42.6651 291.565 43.4584C291.923 44.2517 292.323 45.2766 291.207 45.2766C290.091 45.2766 290.119 43.5918 289.101 43.655C288.083 43.7181 287.62 45.2766 286.925 45.2766H286.665C286.068 45.2766 286.04 44.7852 286.398 44.006C286.756 43.2267 287.156 42.5318 287.156 42.5318C286.572 42.8431 286.103 43.3357 285.823 43.9358C285.345 44.9466 285.261 45.3398 284.419 45.3398C283.576 45.3398 283.604 44.6939 284.475 43.2338C283.969 43.5322 283.55 43.9582 283.26 44.4693C282.839 45.2766 282.614 45.2204 282.053 45.2204C281.351 45.2204 281.351 44.013 282.671 43.2197C282.671 43.2759 282.383 42.9249 280.529 44.7782Z" fill="white" stroke="#121B19" stroke-linecap="round" stroke-linejoin="round"/>
<path d="M285.612 41.8867C285.612 41.8867 285.099 41.8867 284.783 42.7221L285.612 41.8867Z" fill="white"/>
<path d="M285.612 41.8867C285.612 41.8867 285.099 41.8867 284.783 42.7221" stroke="#121B19" stroke-linecap="round" stroke-linejoin="round"/>
<path d="M295.861 97.9549L298.669 102.862H301.07L302.123 101.374L299.526 95.0557L295.861 97.9549Z" fill="white" stroke="#121B19" stroke-linecap="round" stroke-linejoin="round"/>
<path d="M302.516 55.4703L299.617 56.5584C299.617 56.5584 278.964 62.5394 278.059 67.6078C277.153 72.6763 296.254 99.1487 296.254 99.1487C296.254 99.1487 298.557 99.4857 300.347 96.432C300.347 96.432 293.608 76.1371 290.519 72.1568C290.519 72.1568 313.18 68.1694 314.268 65.2702C315.356 62.3709 312.337 55.1895 312.337 55.1895L302.516 55.4703Z" fill="#121B19" stroke="#121B19" stroke-linecap="round" stroke-linejoin="round"/>
<path d="M297.138 102.764C297.188 102.675 297.259 102.601 297.345 102.547C297.43 102.493 297.529 102.461 297.63 102.455C298.496 102.401 299.339 102.146 300.09 101.711C300.842 101.276 301.482 100.673 301.961 99.949C302.047 99.8269 302.174 99.7407 302.319 99.707C302.464 99.6733 302.617 99.6945 302.747 99.7665C303.817 100.396 304.716 101.278 305.366 102.336C305.6 102.707 305.681 103.155 305.594 103.585C305.506 104.015 305.256 104.395 304.896 104.645L295.938 110.669C295.461 110.99 294.899 111.161 294.323 111.16H292.098C291.973 111.16 291.85 111.131 291.739 111.074C291.628 111.016 291.532 110.933 291.46 110.832C291.388 110.73 291.341 110.612 291.324 110.488C291.307 110.365 291.319 110.239 291.361 110.121C291.45 109.85 291.606 109.605 291.815 109.41C292.023 109.215 292.278 109.076 292.554 109.005C294.029 108.647 296.844 103.361 297.138 102.764Z" fill="#121B19"/>
<path d="M297.138 102.764C297.188 102.675 297.259 102.601 297.345 102.547C297.43 102.493 297.529 102.461 297.63 102.455C298.496 102.401 299.339 102.146 300.09 101.711C300.842 101.276 301.482 100.673 301.961 99.949C302.047 99.8269 302.174 99.7407 302.319 99.707C302.464 99.6733 302.617 99.6945 302.747 99.7665C303.817 100.396 304.716 101.278 305.366 102.336C305.6 102.707 305.681 103.155 305.594 103.585C305.506 104.015 305.256 104.395 304.896 104.645L295.938 110.669C295.461 110.99 294.899 111.161 294.323 111.16H292.098C291.973 111.16 291.85 111.131 291.739 111.074C291.628 111.016 291.532 110.933 291.46 110.832C291.388 110.73 291.341 110.612 291.324 110.488C291.307 110.365 291.319 110.239 291.361 110.121C291.45 109.85 291.606 109.605 291.815 109.41C292.023 109.215 292.278 109.076 292.554 109.005C294.029 108.647 296.844 103.361 297.138 102.764Z" fill="#D2D9D7" stroke="#121B19" stroke-linecap="round" stroke-linejoin="round"/>
<path d="M297.138 102.764C297.188 102.675 297.259 102.601 297.345 102.547C297.43 102.493 297.529 102.461 297.63 102.455C298.496 102.401 299.339 102.146 300.09 101.711C300.842 101.276 301.482 100.673 301.961 99.949C302.047 99.8269 302.174 99.7407 302.319 99.707C302.464 99.6733 302.617 99.6945 302.747 99.7665C303.817 100.396 304.716 101.278 305.366 102.336C305.6 102.707 305.681 103.155 305.594 103.585C305.506 104.015 305.256 104.395 304.896 104.645L295.938 110.669C295.461 110.99 294.899 111.161 294.323 111.16H292.098C291.973 111.16 291.85 111.131 291.739 111.074C291.628 111.016 291.532 110.933 291.46 110.832C291.388 110.73 291.341 110.612 291.324 110.488C291.307 110.365 291.319 110.239 291.361 110.121C291.45 109.85 291.606 109.605 291.815 109.41C292.023 109.215 292.278 109.076 292.554 109.005C294.029 108.647 296.844 103.361 297.138 102.764Z" stroke="#121B19" stroke-linecap="round" stroke-linejoin="round"/>
<path d="M286.124 69.6641C286.124 69.6641 287.409 69.7553 289.571 71.384" stroke="#ADB3B1" stroke-linecap="round" stroke-linejoin="round"/>
<path d="M294.639 99.1484L293.685 106.288L297.932 107.018L300.115 99.9979L294.639 99.1484Z" fill="white" stroke="#121B19" stroke-linecap="round" stroke-linejoin="round"/>
<path d="M309.312 57.3794C309.571 58.3622 309.122 61.5914 308.217 62.0477C304.707 63.908 298.908 68.8501 297.623 74.1361C295.995 80.8332 294.184 101.311 294.184 101.311C294.184 101.311 295.637 103.662 299.442 102.574C299.442 102.574 306.504 85.5436 307.044 77.2109C310.7 74.7861 314.587 72.7286 318.648 71.0684C322.074 69.7767 323.941 67.6286 324.622 65.7894C326.433 60.8754 322.811 52.9287 322.811 52.9287L309.403 55.6244L309.312 57.3794Z" fill="#121B19" stroke="#121B19" stroke-linecap="round" stroke-linejoin="round"/>
<path d="M303.752 75.042C304.686 75.1455 305.558 75.5582 306.23 76.2143" stroke="#ADB3B1" stroke-linecap="round" stroke-linejoin="round"/>
<path d="M293.502 104.526C293.425 104.459 293.333 104.414 293.233 104.394C293.133 104.374 293.03 104.381 292.934 104.413C291.719 104.828 287.247 106.267 284.664 106.147C282.783 106.056 282.193 107.123 282.017 107.937C281.994 108.05 281.994 108.166 282.017 108.278C282.04 108.39 282.086 108.497 282.152 108.591C282.218 108.685 282.302 108.764 282.4 108.825C282.497 108.885 282.606 108.925 282.719 108.941L297.244 111.139C297.676 111.207 298.119 111.106 298.478 110.856C298.838 110.606 299.087 110.227 299.174 109.798C299.44 108.581 299.401 107.318 299.062 106.119C299.016 105.977 298.919 105.856 298.789 105.782C298.659 105.708 298.506 105.686 298.36 105.719C297.513 105.909 296.634 105.9 295.791 105.693C294.948 105.486 294.165 105.087 293.502 104.526Z" fill="#121B19"/>
<path d="M293.502 104.526C293.425 104.459 293.333 104.414 293.233 104.394C293.133 104.374 293.03 104.381 292.934 104.413C291.719 104.828 287.247 106.267 284.664 106.147C282.783 106.056 282.193 107.123 282.017 107.937C281.994 108.05 281.994 108.166 282.017 108.278C282.04 108.39 282.086 108.497 282.152 108.591C282.218 108.685 282.302 108.764 282.4 108.825C282.497 108.885 282.606 108.925 282.719 108.941L297.244 111.139C297.676 111.207 298.119 111.106 298.478 110.856C298.838 110.606 299.087 110.227 299.174 109.798C299.44 108.581 299.401 107.318 299.062 106.119C299.016 105.977 298.919 105.856 298.789 105.782C298.659 105.708 298.506 105.686 298.36 105.719C297.513 105.909 296.634 105.9 295.791 105.693C294.948 105.486 294.165 105.087 293.502 104.526Z" fill="#D2D9D7" stroke="#121B19" stroke-linecap="round" stroke-linejoin="round"/>
<path d="M293.502 104.526C293.425 104.459 293.333 104.414 293.233 104.394C293.133 104.374 293.03 104.381 292.934 104.413C291.719 104.828 287.247 106.267 284.664 106.147C282.783 106.056 282.193 107.123 282.017 107.937C281.994 108.05 281.994 108.166 282.017 108.278C282.04 108.39 282.086 108.497 282.152 108.591C282.218 108.685 282.302 108.764 282.4 108.825C282.497 108.885 282.606 108.925 282.719 108.941L297.244 111.139C297.676 111.207 298.119 111.106 298.478 110.856C298.838 110.606 299.087 110.227 299.174 109.798C299.44 108.581 299.401 107.318 299.062 106.119C299.016 105.977 298.919 105.856 298.789 105.782C298.659 105.708 298.506 105.686 298.36 105.719C297.513 105.909 296.634 105.9 295.791 105.693C294.948 105.486 294.165 105.087 293.502 104.526Z" stroke="#121B19" stroke-linecap="round" stroke-linejoin="round"/>
<path d="M300.354 69.1169C302.824 65.5153 306.553 62.9685 310.806 61.9775" stroke="#ADB3B1" stroke-linecap="round" stroke-linejoin="round"/>
<path d="M324.805 55.8347C313.748 58.9165 299.617 56.5367 299.617 56.5367C299.857 54.485 299.803 52.4094 299.455 50.3731H312.456C312.92 50.3749 313.38 50.2846 313.809 50.1074C314.238 49.9303 314.628 49.6699 314.956 49.3412C315.605 48.6828 315.968 47.7948 315.966 46.8701H298.802C298.339 44.7641 297.707 42.3633 296.9 39.7097C296.19 37.2167 295.72 34.6615 295.496 32.079L291.073 40.0678C291.073 40.0678 290.512 42.0123 287.683 42.0685C284.854 42.1246 285.177 41.0997 287.627 33.118C289.167 28.4994 291.586 24.2228 294.752 20.5241C294.883 20.3698 295.06 20.2615 295.257 20.2152C295.257 20.152 295.257 20.1169 295.257 20.1169C313.383 15.4346 321.182 21.2261 321.182 21.2261C316.107 35.9681 324.805 55.8347 324.805 55.8347Z" fill="#7EFDD0" stroke="#121B19" stroke-linecap="round" stroke-linejoin="round"/>
<path d="M299.483 43.3531C299.483 43.3531 297.083 44.8062 297.778 45.1432C298.943 45.7118 301.477 43.9217 301.477 43.9217C301.477 43.9217 304.236 43.7392 302.832 43.1074L301.428 42.4756L299.483 43.3531Z" fill="white"/>
<path opacity="0.2" d="M299.483 43.3531C299.483 43.3531 297.083 44.8062 297.778 45.1432C298.943 45.7118 301.477 43.9217 301.477 43.9217C301.477 43.9217 304.236 43.7392 302.832 43.1074L301.428 42.4756L299.483 43.3531Z" fill="#121B19"/>
<path d="M299.483 43.3531C299.483 43.3531 297.083 44.8062 297.778 45.1432C298.943 45.7118 301.477 43.9217 301.477 43.9217C301.477 43.9217 304.236 43.7392 302.832 43.1074L301.428 42.4756L299.483 43.3531Z" stroke="#121B19" stroke-linecap="round" stroke-linejoin="round"/>
<path d="M302.629 21.592C302.629 21.592 304.033 27.9802 305.788 27.9802C307.543 27.9802 311.2 18.3698 311.2 18.3698L308.771 16.7061L302.629 21.592Z" fill="white"/>
<path d="M298.719 16.1372C298.881 16.9358 299.14 17.7114 299.491 18.4468C300.691 20.7353 302.39 24.4489 304.644 23.8663C306.637 23.3538 309.593 20.3563 309.916 18.5591C310.094 17.5429 310.202 16.5155 310.239 15.4844L298.719 16.1372Z" fill="#121B19" stroke="#121B19" stroke-linecap="round" stroke-linejoin="round"/>
<path d="M302.629 21.592C302.629 21.592 304.033 27.9802 305.788 27.9802C307.543 27.9802 311.2 18.3698 311.2 18.3698L308.771 16.7061L302.629 21.592Z" stroke="#121B19" stroke-linecap="round" stroke-linejoin="round"/>
<path d="M299.301 2.84115C299.301 2.84115 294.275 4.24515 295.167 12.0795C296.093 20.2508 297.273 17.0777 296.753 18.7555C296.234 20.4333 304.18 20.5737 304.18 20.5737C304.18 20.5737 311.123 19.7172 313.229 21.2336C315.335 22.7499 316.556 19.1276 315.742 16.7057C314.928 14.2838 312.008 9.76287 311.172 6.10545C309.972 0.868532 302.425 1.00893 299.301 2.84115Z" fill="#121B19" stroke="#121B19" stroke-linecap="round" stroke-linejoin="round"/>
<path d="M297.777 9.45368C297.777 9.45368 297.777 15.2522 298.943 17.6109C300.108 19.9696 301.645 23.7675 304.032 23.3322C306.138 22.9321 309.473 20.1311 309.922 18.341C310.191 17.2742 310.371 16.1871 310.462 15.0907C310.722 14.9784 311.537 15.6032 311.909 13.5534C312.049 12.8092 312.758 10.612 311.143 10.2891C309.395 9.9521 309.409 12.4653 309.409 12.4653L306.84 5.92262L300.901 4.92578L298.915 5.83136L297.777 9.45368Z" fill="white" stroke="#121B19" stroke-linecap="round" stroke-linejoin="round"/>
<path d="M301.526 15.0977C301.435 15.8468 301.271 16.5851 301.035 17.3019C301.002 17.4211 301.016 17.5484 301.075 17.657C301.134 17.7657 301.233 17.8473 301.351 17.8846L302.565 18.2426" stroke="#121B19" stroke-linecap="round" stroke-linejoin="round"/>
<path d="M303.513 19.4643C303.513 19.4643 305.759 19.4011 306.672 18.1445" stroke="#121B19" stroke-linecap="round" stroke-linejoin="round"/>
<path d="M298.845 13.2943C298.897 13.1797 298.971 13.0766 299.064 12.9908C299.156 12.9051 299.264 12.8384 299.382 12.7947C299.5 12.751 299.626 12.7311 299.752 12.7361C299.878 12.7411 300.001 12.771 300.115 12.824" stroke="#121B19" stroke-linecap="round" stroke-linejoin="round"/>
<path d="M302.769 12.4164C302.769 12.4164 303.885 11.6162 305.38 12.7323" stroke="#121B19" stroke-linecap="round" stroke-linejoin="round"/>
<path d="M300.066 15.0631C300.108 15.372 300.024 15.6528 299.862 15.6739C299.701 15.6949 299.539 15.4563 299.49 15.1404C299.441 14.8245 299.539 14.5507 299.694 14.5296C299.848 14.5086 300.017 14.7472 300.066 15.0631Z" fill="#121B19"/>
<path d="M304.096 14.8239C304.145 15.1398 304.054 15.4136 303.899 15.4346C303.745 15.4557 303.569 15.217 303.527 14.9081C303.485 14.5992 303.569 14.3114 303.731 14.2904C303.892 14.2693 304.033 14.508 304.096 14.8239Z" fill="#121B19"/>
<path d="M297.399 5.92301C297.399 5.92301 295.454 11.0406 298.304 10.9072C301.154 10.7738 303.576 8.94161 306.412 10.4509C309.248 11.9602 305.963 7.64291 305.963 7.64291C305.963 7.64291 308.862 10.7247 308.771 12.8517C308.68 14.9788 309.81 11.539 309.627 10.4088C309.445 9.27857 307.542 3.67661 307.542 3.67661L304.468 2.97461L299.203 3.51515L297.399 5.92301Z" fill="#121B19" stroke="#121B19" stroke-linecap="round" stroke-linejoin="round"/>
<path d="M310.14 17.4989C309.951 18.3203 306.981 21.2546 308.947 21.8654C310.912 22.4761 315.195 21.8654 315.841 19.6822C316.486 17.4989 314.437 16.3477 314.437 16.3477C314.437 16.3477 310.386 16.4038 310.14 17.4989Z" fill="#121B19" stroke="#121B19" stroke-linecap="round" stroke-linejoin="round"/>
<path d="M310.582 41.381L304.06 41.7039C304.06 41.7039 298.578 40.3631 296.717 40.4754C295.27 40.6467 293.863 41.0621 292.555 41.7039C291.964 42.1426 291.509 42.7387 291.242 43.4238C291.188 43.761 291.188 44.1046 291.242 44.4417C291.241 44.6197 291.309 44.7912 291.43 44.9215C291.551 45.0518 291.717 45.1313 291.895 45.1437C293.144 45.235 295.215 45.3473 295.707 44.7296C295.707 44.7296 295.299 45.2139 296.036 45.2139C296.774 45.2139 297.777 44.0486 297.777 44.0486L299.982 43.9574C299.982 43.9574 300.929 45.1367 303.787 45.2139C304.25 45.1465 304.705 45.0264 305.141 44.8559L310.442 45.5579L311.144 44.6523V41.5846L310.582 41.381Z" fill="white" stroke="#121B19" stroke-linecap="round" stroke-linejoin="round"/>
<path d="M292.239 44.6449C292.239 44.6449 292.85 42.4546 293.552 42.0194C294.17 41.7122 294.805 41.4403 295.454 41.2051" stroke="#121B19" stroke-linecap="round" stroke-linejoin="round"/>
<path d="M293.755 44.6457C293.827 44.1295 293.979 43.6276 294.204 43.1575C294.781 42.5127 295.503 42.0146 296.31 41.7043C296.803 41.6572 297.299 41.6572 297.791 41.7043" stroke="#121B19" stroke-linecap="round" stroke-linejoin="round"/>
<path d="M295.854 44.2385C295.854 44.2385 296.051 43.3048 296.297 43.1083C296.753 42.8378 297.255 42.6545 297.778 42.5677C298.166 42.5386 298.555 42.5386 298.943 42.5677" stroke="#121B19" stroke-linecap="round" stroke-linejoin="round"/>
<path d="M309.438 45.6424C309.438 45.6424 321.996 47.278 324.713 47.4114C327.43 47.5448 326.749 34.2278 326.475 28.5206C326.201 22.8133 320.627 20.8828 320.627 20.8828C316.682 29.0822 321.175 39.8017 321.175 39.8017L310.034 41.1636C310.034 41.1636 310.884 44.0137 309.438 45.6424Z" fill="#7EFDD0" stroke="#121B19" stroke-linecap="round" stroke-linejoin="round"/>
<path d="M315.868 26.2109C316.021 29.0121 317.061 31.6921 318.838 33.8627" stroke="#121B19" stroke-linecap="round" stroke-linejoin="round"/>
<path d="M296.598 24.8633C296.07 27.4637 295.786 30.1076 295.749 32.7608" stroke="#121B19" stroke-linecap="round" stroke-linejoin="round"/>
<path d="M288.343 28.6611H285.535L289.403 46.871H292.211C292.397 46.8782 292.583 46.8411 292.752 46.7628C292.921 46.6846 293.069 46.5674 293.184 46.4208C293.299 46.2742 293.378 46.1024 293.414 45.9196C293.45 45.7367 293.442 45.5479 293.391 45.3687L290.154 30.1564C290.056 29.7443 289.826 29.3756 289.499 29.1058C289.172 28.8361 288.766 28.68 288.343 28.6611Z" fill="#121B19"/>
<path opacity="0.2" d="M288.343 28.6611H285.535L289.403 46.871H292.211C292.397 46.8782 292.583 46.8411 292.752 46.7628C292.921 46.6846 293.069 46.5674 293.184 46.4208C293.299 46.2742 293.378 46.1024 293.414 45.9196C293.45 45.7367 293.442 45.5479 293.391 45.3687L290.154 30.1564C290.056 29.7443 289.826 29.3756 289.499 29.1058C289.172 28.8361 288.766 28.68 288.343 28.6611Z" fill="white"/>
<path d="M288.343 28.6611H285.535L289.403 46.871H292.211C292.397 46.8782 292.583 46.8411 292.752 46.7628C292.921 46.6846 293.069 46.5674 293.184 46.4208C293.299 46.2742 293.378 46.1024 293.414 45.9196C293.45 45.7367 293.442 45.5479 293.391 45.3687L290.154 30.1564C290.056 29.7443 289.826 29.3756 289.499 29.1058C289.172 28.8361 288.766 28.68 288.343 28.6611Z" stroke="#121B19" stroke-linecap="round" stroke-linejoin="round"/>
<path d="M293.397 45.3682H308.139V46.0702C308.139 46.1789 308.118 46.2867 308.076 46.3872C308.034 46.4877 307.973 46.579 307.896 46.6559C307.819 46.7328 307.728 46.7938 307.628 46.8355C307.527 46.8771 307.419 46.8985 307.311 46.8985H294.204C294.096 46.8985 293.988 46.8771 293.887 46.8355C293.787 46.7938 293.696 46.7328 293.619 46.6559C293.542 46.579 293.481 46.4877 293.439 46.3872C293.397 46.2867 293.376 46.1789 293.376 46.0702V45.3682H293.397Z" fill="#121B19"/>
<path opacity="0.2" d="M293.397 45.3682H308.139V46.0702C308.139 46.1789 308.118 46.2867 308.076 46.3872C308.034 46.4877 307.973 46.579 307.896 46.6559C307.819 46.7328 307.728 46.7938 307.628 46.8355C307.527 46.8771 307.419 46.8985 307.311 46.8985H294.204C294.096 46.8985 293.988 46.8771 293.887 46.8355C293.787 46.7938 293.696 46.7328 293.619 46.6559C293.542 46.579 293.481 46.4877 293.439 46.3872C293.397 46.2867 293.376 46.1789 293.376 46.0702V45.3682H293.397Z" fill="white"/>
<path d="M293.397 45.3682H308.139V46.0702C308.139 46.1789 308.118 46.2867 308.076 46.3872C308.034 46.4877 307.973 46.579 307.896 46.6559C307.819 46.7328 307.728 46.7938 307.628 46.8355C307.527 46.8771 307.419 46.8985 307.311 46.8985H294.204C294.096 46.8985 293.988 46.8771 293.887 46.8355C293.787 46.7938 293.696 46.7328 293.619 46.6559C293.542 46.579 293.481 46.4877 293.439 46.3872C293.397 46.2867 293.376 46.1789 293.376 46.0702V45.3682H293.397Z" stroke="#121B19" stroke-linecap="round" stroke-linejoin="round"/>
<path d="M291.13 46.8702H268.301C267.876 46.8514 267.469 46.6945 267.141 46.4235C266.812 46.1524 266.582 45.7819 266.483 45.368L263.254 30.1556C263.202 29.9768 263.194 29.7883 263.23 29.6057C263.266 29.4231 263.345 29.2516 263.46 29.1055C263.575 28.9594 263.723 28.8428 263.893 28.7654C264.062 28.688 264.247 28.652 264.433 28.6604H287.262C287.686 28.6781 288.092 28.8337 288.419 29.1037C288.746 29.3736 288.976 29.743 289.073 30.1556L292.309 45.368C292.361 45.5472 292.369 45.7359 292.333 45.9188C292.297 46.1017 292.218 46.2734 292.103 46.42C291.988 46.5666 291.84 46.6838 291.671 46.7621C291.502 46.8403 291.316 46.8774 291.13 46.8702Z" fill="#121B19"/>
<path d="M291.13 46.8702H268.301C267.876 46.8514 267.469 46.6945 267.141 46.4235C266.812 46.1524 266.582 45.7819 266.483 45.368L263.254 30.1556C263.202 29.9768 263.194 29.7883 263.23 29.6057C263.266 29.4231 263.345 29.2516 263.46 29.1055C263.575 28.9594 263.723 28.8428 263.893 28.7654C264.062 28.688 264.247 28.652 264.433 28.6604H287.262C287.686 28.6781 288.092 28.8337 288.419 29.1037C288.746 29.3736 288.976 29.743 289.073 30.1556L292.309 45.368C292.361 45.5472 292.369 45.7359 292.333 45.9188C292.297 46.1017 292.218 46.2734 292.103 46.42C291.988 46.5666 291.84 46.6838 291.671 46.7621C291.502 46.8403 291.316 46.8774 291.13 46.8702Z" fill="#D2D9D7" stroke="#121B19" stroke-linecap="round" stroke-linejoin="round"/>
<path d="M291.13 46.8702H268.301C267.876 46.8514 267.469 46.6945 267.141 46.4235C266.812 46.1524 266.582 45.7819 266.483 45.368L263.254 30.1556C263.202 29.9768 263.194 29.7883 263.23 29.6057C263.266 29.4231 263.345 29.2516 263.46 29.1055C263.575 28.9594 263.723 28.8428 263.893 28.7654C264.062 28.688 264.247 28.652 264.433 28.6604H287.262C287.686 28.6781 288.092 28.8337 288.419 29.1037C288.746 29.3736 288.976 29.743 289.073 30.1556L292.309 45.368C292.361 45.5472 292.369 45.7359 292.333 45.9188C292.297 46.1017 292.218 46.2734 292.103 46.42C291.988 46.5666 291.84 46.6838 291.671 46.7621C291.502 46.8403 291.316 46.8774 291.13 46.8702Z" stroke="#121B19" stroke-linecap="round" stroke-linejoin="round"/>
<path d="M247.809 22.7363C246.738 22.6922 245.724 22.2355 244.982 21.4616C244.239 20.6877 243.824 19.6566 243.824 18.584C243.824 17.5113 244.239 16.4802 244.982 15.7064C245.724 14.9325 246.738 14.4757 247.809 14.4316H278.817C279.888 14.4757 280.902 14.9325 281.644 15.7064C282.387 16.4802 282.802 17.5113 282.802 18.584C282.802 19.6566 282.387 20.6877 281.644 21.4616C280.902 22.2355 279.888 22.6922 278.817 22.7363H247.809Z" fill="white"/>
<path d="M247.809 22.7363C246.738 22.6922 245.724 22.2355 244.982 21.4616C244.239 20.6877 243.824 19.6566 243.824 18.584C243.824 17.5113 244.239 16.4802 244.982 15.7064C245.724 14.9325 246.738 14.4757 247.809 14.4316H278.817C279.888 14.4757 280.902 14.9325 281.644 15.7064C282.387 16.4802 282.802 17.5113 282.802 18.584C282.802 19.6566 282.387 20.6877 281.644 21.4616C280.902 22.2355 279.888 22.6922 278.817 22.7363H247.809Z" stroke="#121B19" stroke-miterlimit="10"/>
<path d="M266.356 15.8496H247.809C247.108 15.8852 246.447 16.1887 245.963 16.6976C245.48 17.2065 245.21 17.8818 245.21 18.5839C245.21 19.286 245.48 19.9613 245.963 20.4702C246.447 20.9791 247.108 21.2826 247.809 21.3182H265.092L266.356 15.8496Z" fill="#7EFDD0"/>
<path d="M265.851 83.9359V46.8633H315.966C315.967 47.3279 315.876 47.788 315.697 48.217C315.519 48.646 315.257 49.0353 314.927 49.3624C314.6 49.6911 314.21 49.9515 313.781 50.1287C313.352 50.3058 312.892 50.3961 312.428 50.3943H271.038V89.4466" stroke="#121B19" stroke-linecap="round" stroke-linejoin="round"/>
<path d="M276.716 212.829H253.915C253.405 212.828 252.914 212.629 252.547 212.275C252.179 211.92 251.963 211.437 251.943 210.927L250.377 168.863C250.367 168.587 250.415 168.312 250.518 168.055C250.621 167.799 250.777 167.567 250.975 167.375C251.174 167.183 251.411 167.034 251.671 166.94C251.931 166.846 252.208 166.807 252.483 166.827L279.159 168.709C279.673 168.741 280.153 168.973 280.498 169.355C280.843 169.736 281.025 170.238 281.006 170.752L278.689 210.941C278.666 211.449 278.448 211.928 278.08 212.28C277.713 212.631 277.225 212.828 276.716 212.829Z" fill="#7EFDD0" stroke="#121B19" stroke-linecap="round" stroke-linejoin="round"/>
<path d="M260.543 187.726C260.706 187.157 260.819 186.574 260.88 185.985C260.88 185.606 260.669 184.764 260.346 184.581C260.023 184.399 258.36 184.7 258.36 184.7C258.36 184.7 258.753 183.402 258.486 183.107C258.219 182.812 257.37 182.931 257.04 183.107C256.499 183.353 255.846 184.434 255.481 184.904C255.039 185.48 254.267 186.708 253.853 187.298C253.656 187.593 253.038 188.463 253.038 188.463L247.963 190.274L248.237 195.413L253.958 191.959C253.958 191.959 259.09 191.959 260.171 190.801C260.697 190.197 260.423 188.477 260.543 187.726Z" fill="white" stroke="#121B19" stroke-linecap="round" stroke-linejoin="round"/>
<path d="M252.287 177.322C251.999 181.394 251.388 185.669 250.146 188.126H252.252C252.252 188.126 250.343 191.545 251.55 194.774C251.55 194.774 245.751 198.67 244.46 196.178C243.168 193.686 244.663 183.612 245.99 178.768C247.317 173.924 247.724 166.483 252.456 166.834" fill="#7EFDD0"/>
<path d="M252.287 177.322C251.999 181.394 251.388 185.669 250.146 188.126H252.252C252.252 188.126 250.343 191.545 251.55 194.774C251.55 194.774 245.751 198.67 244.46 196.178C243.168 193.686 244.663 183.612 245.99 178.768C247.317 173.924 247.724 166.483 252.456 166.834" stroke="#121B19" stroke-linecap="round" stroke-linejoin="round"/>
<path d="M249.276 188.463C248.312 188.839 247.488 189.503 246.917 190.365" stroke="#121B19" stroke-linecap="round" stroke-linejoin="round"/>
<path d="M260.599 175.237L261.553 175.111C261.709 175.089 261.868 175.099 262.02 175.138C262.172 175.178 262.315 175.248 262.441 175.343C262.566 175.438 262.671 175.557 262.75 175.694C262.829 175.83 262.88 175.98 262.901 176.136L263.975 184.019C263.997 184.176 263.988 184.335 263.948 184.487C263.908 184.64 263.839 184.784 263.744 184.909C263.648 185.035 263.529 185.141 263.393 185.221C263.257 185.301 263.107 185.353 262.95 185.374L261.996 185.501L260.599 175.237Z" fill="white" stroke="#121B19" stroke-linecap="round" stroke-linejoin="round"/>
<path d="M258.974 185.918L262.125 185.489C262.874 185.386 263.399 184.696 263.297 183.947L262.267 176.393C262.165 175.644 261.475 175.12 260.726 175.222L257.575 175.651C256.826 175.753 256.301 176.443 256.404 177.192L257.433 184.746C257.535 185.496 258.225 186.02 258.974 185.918Z" fill="#D2D9D7"/>
<path d="M258.974 185.918L262.125 185.489C262.874 185.386 263.399 184.696 263.297 183.947L262.267 176.393C262.165 175.644 261.475 175.12 260.726 175.222L257.575 175.651C256.826 175.753 256.301 176.443 256.404 177.192L257.433 184.746C257.535 185.496 258.225 186.02 258.974 185.918Z" stroke="#121B19" stroke-linecap="round" stroke-linejoin="round"/>
<path d="M257.131 176.943C257.139 177 257.158 177.054 257.187 177.104C257.216 177.153 257.254 177.196 257.3 177.231C257.345 177.265 257.397 177.291 257.453 177.305C257.508 177.319 257.566 177.323 257.623 177.315C257.679 177.307 257.734 177.288 257.783 177.259C257.833 177.23 257.876 177.192 257.91 177.146C257.945 177.101 257.97 177.049 257.985 176.993C257.999 176.938 258.002 176.88 257.995 176.824C257.977 176.71 257.916 176.607 257.824 176.538C257.733 176.468 257.617 176.437 257.503 176.452C257.446 176.459 257.392 176.478 257.342 176.507C257.293 176.536 257.25 176.574 257.215 176.62C257.181 176.666 257.155 176.718 257.141 176.773C257.127 176.829 257.123 176.886 257.131 176.943Z" fill="white" stroke="#121B19" stroke-linecap="round" stroke-linejoin="round"/>
<path d="M257.931 184.715C257.832 184.131 257.785 183.539 257.791 182.946C257.861 182.567 258.135 181.753 258.493 181.584C258.851 181.416 260.458 181.928 260.458 181.928C260.458 181.928 260.205 180.587 260.507 180.327C260.809 180.068 261.637 180.278 261.911 180.461C262.424 180.763 262.95 181.914 263.259 182.419C263.631 183.044 264.263 184.343 264.607 184.982C264.775 185.298 265.309 186.224 265.309 186.224L269.844 188.302L267.738 192.114L264.017 189.601C264.017 189.601 258.914 189.018 257.966 187.755C257.503 187.144 257.966 185.494 257.931 184.715Z" fill="white" stroke="#121B19" stroke-linecap="round" stroke-linejoin="round"/>
<path d="M278.759 170.871C278.872 170.365 278.991 169.867 279.124 169.376C279.152 169.248 279.214 169.131 279.304 169.037C279.394 168.943 279.508 168.876 279.634 168.843C279.76 168.81 279.893 168.813 280.017 168.851C280.142 168.89 280.253 168.962 280.339 169.06L280.514 169.249C281.444 170.24 282.112 171.446 282.459 172.759C283.694 177.442 286.369 189.207 284.474 197.842C284.365 198.327 284.088 198.757 283.693 199.058C283.297 199.359 282.808 199.51 282.312 199.484C278.837 199.274 272.757 198.403 266.109 191.819C266.109 191.819 267.513 188.526 269.163 187.396L278.359 191.109C277.923 187.819 277.717 184.502 277.741 181.183" fill="#7EFDD0"/>
<path d="M278.759 170.871C278.872 170.365 278.991 169.867 279.124 169.376C279.152 169.248 279.214 169.131 279.304 169.037C279.394 168.943 279.508 168.876 279.634 168.843C279.76 168.81 279.893 168.813 280.017 168.851C280.142 168.89 280.253 168.962 280.339 169.06L280.514 169.249C281.444 170.24 282.112 171.446 282.459 172.759C283.694 177.442 286.369 189.207 284.474 197.842C284.365 198.327 284.088 198.757 283.693 199.058C283.297 199.359 282.808 199.51 282.312 199.484C278.837 199.274 272.757 198.403 266.109 191.819C266.109 191.819 267.513 188.526 269.163 187.396L278.359 191.109C277.923 187.819 277.717 184.502 277.741 181.183" stroke="#121B19" stroke-linecap="round" stroke-linejoin="round"/>
<path d="M279.152 191.706C279.533 191.911 279.868 192.19 280.139 192.526C280.41 192.863 280.612 193.25 280.732 193.665" stroke="#121B19" stroke-linecap="round" stroke-linejoin="round"/>
<path d="M266.776 161.492L272.75 151.91C272.75 151.91 275.846 150.625 274.189 148.976C274.189 148.976 276.85 144.371 273.396 144.371C273.396 144.371 272.954 140.629 269.612 142.138C269.612 142.138 266.706 138.684 264.761 141.205C264.761 141.205 260.774 139.26 259.749 141.703C259.749 141.703 256.836 141.703 256.941 143.865C256.941 143.865 255.109 146.308 257.524 146.596C257.524 146.596 256.885 148.541 259.742 148.541C262.599 148.541 266.123 152.051 266.123 152.051L266.825 155.645L266.776 161.492Z" fill="#121B19" stroke="#121B19" stroke-linecap="round" stroke-linejoin="round"/>
<path d="M270.666 168.232C270.666 168.232 264.172 171.798 259.434 167.228C259.434 167.228 260.627 164.981 261.041 159.4L267.928 158.172C267.729 160.07 267.8 161.987 268.138 163.865C268.595 165.992 269.837 167.944 270.666 168.232Z" fill="white"/>
<path d="M268.419 158.34L268.222 159.042C268.107 159.462 267.911 159.855 267.647 160.2C266.594 161.604 263.638 165.114 260.753 164.798C258.078 164.532 257.334 160.404 257.138 158.333L268.419 158.34Z" fill="#121B19" stroke="#121B19" stroke-linecap="round" stroke-linejoin="round"/>
<path d="M270.666 168.232C270.666 168.232 264.172 171.798 259.434 167.228C259.434 167.228 260.627 164.981 261.041 159.4L267.928 158.172C267.729 160.07 267.8 161.987 268.138 163.865C268.595 165.992 269.837 167.944 270.666 168.232Z" stroke="#121B19" stroke-linecap="round" stroke-linejoin="round"/>
<path d="M258.086 147.529L256.998 150.997C256.878 151.364 256.844 151.753 256.9 152.134L257.054 153.159L256.485 155.441C256.458 155.559 256.437 155.678 256.422 155.799C256.303 156.999 255.84 163.402 259.23 164.223C262.228 164.925 265.878 161.696 267.198 160.383C267.526 160.057 267.789 159.671 267.97 159.246L268.728 157.519C269.161 157.583 269.604 157.511 269.994 157.312C270.384 157.113 270.702 156.798 270.905 156.41C271.607 155.006 272.519 154.212 271.164 153.244C269.809 152.275 268.953 154.24 268.953 154.24C268.953 154.24 268.995 151.769 268.672 151.025C268.349 150.281 267.233 149.418 266.945 148.772C266.804 148.272 266.71 147.759 266.664 147.242C266.664 147.242 262.031 147.368 258.739 146.111L258.086 147.529Z" fill="white" stroke="#121B19" stroke-linecap="round" stroke-linejoin="round"/>
<path d="M258.086 147.529L256.998 150.997C256.878 151.364 256.844 151.753 256.9 152.134L257.054 153.159L256.485 155.441C256.458 155.559 256.437 155.678 256.422 155.799C256.303 156.999 255.84 163.402 259.23 164.223C262.228 164.925 265.878 161.696 267.198 160.383C267.526 160.057 267.789 159.671 267.97 159.246L268.728 157.519C269.161 157.583 269.604 157.511 269.994 157.312C270.384 157.113 270.702 156.798 270.905 156.41C271.607 155.006 272.519 154.212 271.164 153.244C269.809 152.275 268.953 154.24 268.953 154.24C268.953 154.24 268.995 151.769 268.672 151.025C268.349 150.281 267.233 149.418 266.945 148.772C266.804 148.272 266.71 147.759 266.664 147.242C266.664 147.242 262.031 147.368 258.739 146.111L258.086 147.529Z" fill="white" stroke="#121B19" stroke-linecap="round" stroke-linejoin="round"/>
<path d="M260.241 154.381L258.542 157.112C258.494 157.203 258.467 157.304 258.463 157.406C258.458 157.509 258.476 157.612 258.516 157.707C258.555 157.802 258.615 157.888 258.691 157.957C258.768 158.026 258.858 158.078 258.956 158.108L260.452 158.459" stroke="#121B19" stroke-linecap="round" stroke-linejoin="round"/>
<path d="M262.711 160.025C261.672 160.854 260.353 160.973 259.714 160.39" stroke="#121B19" stroke-linecap="round" stroke-linejoin="round"/>
<path d="M262.529 155.308C262.466 155.715 262.255 156.01 262.059 156.01C261.862 156.01 261.764 155.624 261.834 155.223C261.904 154.823 262.108 154.521 262.304 154.521C262.501 154.521 262.613 154.922 262.529 155.308Z" fill="#121B19"/>
<path d="M258.746 154.697C258.676 155.105 258.465 155.399 258.275 155.399C258.086 155.399 257.981 155.013 258.044 154.613C258.107 154.213 258.325 153.911 258.514 153.911C258.704 153.911 258.809 154.297 258.746 154.697Z" fill="#121B19"/>
<path d="M257.159 152.248C257.211 152.076 257.301 151.918 257.422 151.785C257.543 151.652 257.692 151.549 257.858 151.481C258.024 151.414 258.204 151.385 258.383 151.396C258.562 151.407 258.736 151.458 258.893 151.546" stroke="#121B19" stroke-linecap="round" stroke-linejoin="round"/>
<path d="M261.715 151.798C262.151 151.804 262.575 151.941 262.932 152.191C263.289 152.442 263.562 152.794 263.716 153.202" stroke="#121B19" stroke-linecap="round" stroke-linejoin="round"/>
<path d="M268.047 147.186C268.047 147.186 264.249 149.952 263.8 147.951C263.8 147.951 260.641 148.709 260.43 147.649C260.43 147.649 257.271 148.913 256.92 147.93C256.569 146.947 259.441 144.336 259.441 144.336L266.117 145.185L268.047 147.186Z" fill="#121B19" stroke="#121B19" stroke-linecap="round" stroke-linejoin="round"/>
<path d="M260.29 143.781C259.864 144.626 259.331 145.411 258.703 146.119" stroke="#ADB3B1" stroke-linecap="round" stroke-linejoin="round"/>
<path d="M262.29 142.875C261.735 142.798 261.171 142.939 260.718 143.269" stroke="#ADB3B1" stroke-linecap="round" stroke-linejoin="round"/>
<path d="M270.019 145.199C268.173 145.023 267.913 146.603 265.056 146.512C262.36 146.399 263.61 144.314 263.182 143.353" stroke="#ADB3B1" stroke-linecap="round" stroke-linejoin="round"/>
<path d="M271.347 151.384C271.347 151.384 274.527 146.771 271.347 145.543" stroke="#ADB3B1" stroke-linecap="round" stroke-linejoin="round"/>
<path d="M248.377 296.712C247.72 296.923 247.118 297.276 246.612 297.745C246.106 298.215 245.71 298.789 245.45 299.428C245.399 299.54 245.378 299.663 245.39 299.786C245.402 299.908 245.445 300.025 245.516 300.125C245.587 300.225 245.683 300.305 245.795 300.356C245.906 300.408 246.029 300.429 246.152 300.418H256.478C256.677 300.42 256.869 300.35 257.02 300.221C257.172 300.092 257.271 299.913 257.299 299.716C257.468 298.421 257.294 297.104 256.794 295.897L257.363 289.537H251.332L250.869 295.623L248.377 296.712Z" fill="white" stroke="#121B19" stroke-linecap="round" stroke-linejoin="round"/>
<path d="M254.955 296.649C256.036 298.158 255.769 295.898 256.766 295.898C257.266 297.104 257.44 298.421 257.271 299.716C257.242 299.913 257.143 300.092 256.992 300.222C256.841 300.351 256.648 300.421 256.45 300.418H246.123C246.001 300.43 245.878 300.408 245.766 300.357C245.655 300.305 245.559 300.226 245.488 300.125C245.417 300.025 245.373 299.908 245.362 299.786C245.35 299.664 245.371 299.54 245.421 299.429C245.681 298.79 246.078 298.215 246.584 297.746C247.09 297.276 247.692 296.924 248.349 296.712L250.813 295.624C250.813 295.624 253.88 295.139 254.955 296.649Z" fill="#D2D9D7" stroke="#121B19" stroke-linecap="round" stroke-linejoin="round"/>
<path d="M257.3 299.499C257.3 299.576 257.3 299.653 257.3 299.717C257.271 299.913 257.172 300.093 257.021 300.222C256.87 300.351 256.677 300.421 256.478 300.419H246.124C246.012 300.423 245.9 300.401 245.798 300.354C245.697 300.307 245.608 300.236 245.539 300.147C245.47 300.059 245.424 299.955 245.403 299.844C245.383 299.734 245.389 299.62 245.422 299.513C246.124 299.513 246.615 299.513 246.615 299.513L257.3 299.499Z" fill="white" stroke="#121B19" stroke-linecap="round" stroke-linejoin="round"/>
<path d="M252.624 211.938L250.518 293.37H257.959C257.959 293.37 260.261 273.012 260.528 266.161C260.647 263.1 261.272 257.737 261.483 254.648C261.855 249.109 262.718 242.938 264.845 232.184C265.189 230.45 267.274 227.452 267.717 225.732C268.58 222.384 268.945 211.917 268.945 211.917L252.624 211.938Z" fill="#121B19" stroke="#121B19" stroke-linecap="round" stroke-linejoin="round"/>
<path d="M257.784 260.257C257.784 260.257 256.085 262.503 253.727 262.201" stroke="#ADB3B1" stroke-linecap="round" stroke-linejoin="round"/>
<path d="M251.739 258.116C251.739 258.116 254.428 259.717 258.429 258.116" stroke="#ADB3B1" stroke-linecap="round" stroke-linejoin="round"/>
<path d="M284.657 296.712C285.618 297.133 287.1 297.758 287.661 299.646C287.685 299.737 287.687 299.832 287.668 299.925C287.649 300.017 287.61 300.104 287.552 300.178C287.494 300.253 287.421 300.313 287.336 300.355C287.252 300.396 287.159 300.418 287.065 300.418H276.738C276.493 300.418 276.255 300.328 276.072 300.165C275.888 300.002 275.771 299.777 275.741 299.534C275.617 298.296 275.801 297.047 276.275 295.897L275.699 289.537H281.736L282.193 295.623L284.657 296.712Z" fill="white" stroke="#121B19" stroke-linecap="round" stroke-linejoin="round"/>
<path d="M287.661 299.646C287.684 299.738 287.687 299.833 287.668 299.925C287.649 300.017 287.609 300.104 287.551 300.179C287.494 300.253 287.42 300.313 287.336 300.355C287.251 300.397 287.158 300.418 287.064 300.419H276.738C276.492 300.419 276.255 300.329 276.071 300.166C275.888 300.003 275.77 299.778 275.741 299.534C275.617 298.297 275.8 297.047 276.274 295.898C277.243 295.736 276.618 297.835 278.212 296.544C279.805 295.252 282.192 295.624 282.192 295.624L284.656 296.712C285.618 297.112 287.099 297.758 287.661 299.646Z" fill="#D2D9D7" stroke="#121B19" stroke-linecap="round" stroke-linejoin="round"/>
<path d="M287.605 299.499C287.605 299.555 287.647 299.597 287.661 299.646C287.685 299.738 287.687 299.833 287.668 299.925C287.649 300.017 287.609 300.104 287.552 300.179C287.494 300.253 287.42 300.313 287.336 300.355C287.251 300.397 287.159 300.418 287.064 300.419H276.738C276.492 300.419 276.255 300.329 276.072 300.166C275.888 300.003 275.77 299.778 275.741 299.534V299.499H287.605Z" fill="white" stroke="#121B19" stroke-linecap="round" stroke-linejoin="round"/>
<path d="M277.974 211.952C277.974 211.952 279.027 220.046 279.181 222.763C279.265 224.371 279.125 227.6 279.181 229.207C279.378 235.399 280.15 247.775 280.761 253.932C281.077 257.175 282.277 263.598 282.495 266.849C282.944 273.468 282.495 293.398 282.495 293.398H275.018C275.018 293.398 271.986 270.934 271.199 263.395C270.919 260.72 267.816 234.142 265.703 228.351C265.303 227.242 264.39 225.381 264.011 224.265C263.255 221.924 262.705 219.521 262.368 217.084C262.256 215.806 262.179 211.966 262.179 211.966L277.974 211.952Z" fill="#121B19" stroke="#121B19" stroke-linecap="round" stroke-linejoin="round"/>
<path d="M279.349 257.21C279.349 257.21 277.945 259.758 273.031 259.758" stroke="#ADB3B1" stroke-linecap="round" stroke-linejoin="round"/>
<path d="M265.562 228.885C265.162 227.825 264.25 226.077 263.871 224.988C263.288 223.353 262.368 217.063 262.179 211.945" stroke="#ADB3B1" stroke-linecap="round" stroke-linejoin="round"/>
<path d="M272.273 265.297C273.7 272.367 276.477 279.096 280.452 285.114" stroke="#ADB3B1" stroke-linecap="round" stroke-linejoin="round"/>
<path d="M251.213 264.293C251.689 270.859 253.397 277.277 256.246 283.212" stroke="#ADB3B1" stroke-linecap="round" stroke-linejoin="round"/>
<path d="M271.333 159.189H290.413C291.908 159.189 293.123 160.923 293.123 163.064V169.516C293.123 171.622 291.908 173.384 290.413 173.384H275.194L269.051 177.47L271.333 173.384C269.837 173.384 268.63 171.65 268.63 169.516V163.064C268.63 160.923 269.837 159.189 271.333 159.189Z" fill="white" stroke="#121B19" stroke-linecap="round" stroke-linejoin="round"/>
<path d="M288.819 163.149H272.68" stroke="#121B19" stroke-linecap="round" stroke-linejoin="round"/>
<path d="M288.819 166.014H273.923" stroke="#121B19" stroke-linecap="round" stroke-linejoin="round"/>
<path d="M288.819 168.885H272.68" stroke="#121B19" stroke-linecap="round" stroke-linejoin="round"/>
<path d="M42.4463 122.869H60.0454C60.8433 122.933 61.5933 123.275 62.1644 123.836C62.7355 124.397 63.0912 125.14 63.1693 125.937L67.3182 163.346C67.4757 164.792 68.1621 166.129 69.2454 167.1C70.3287 168.07 71.7324 168.606 73.1869 168.604" stroke="#121B19" stroke-linecap="round" stroke-linejoin="round"/>
<path d="M90.2735 173.315V176.762H48.5045C47.0205 176.761 45.5912 176.202 44.501 175.195C43.4109 174.188 42.7399 172.807 42.6217 171.328L38.9924 126.435C38.956 125.967 39.0197 125.496 39.1793 125.054C39.3389 124.611 39.5907 124.208 39.9181 123.871C40.2454 123.534 40.6407 123.27 41.0778 123.097C41.5149 122.924 41.9838 122.847 42.4532 122.869C43.2503 122.933 43.9994 123.275 44.5693 123.836C45.1392 124.397 45.4935 125.141 45.5701 125.937L49.7189 163.346C49.8797 164.793 50.569 166.13 51.6546 167.101C52.7402 168.071 54.1457 168.606 55.6017 168.604H85.5701C86.8181 168.606 88.0144 169.103 88.8963 169.986C89.7782 170.87 90.2735 172.067 90.2735 173.315V173.315Z" stroke="#121B19" stroke-linecap="round" stroke-linejoin="round"/>
<path d="M81.1829 209.945H70.5125V175.547H65.0088V209.945H54.3384C53.454 209.945 52.6059 210.296 51.9806 210.922C51.3552 211.547 51.0039 212.395 51.0039 213.279H84.5174C84.5183 212.841 84.4327 212.407 84.2654 212.002C84.0982 211.597 83.8526 211.229 83.5428 210.919C83.233 210.61 82.865 210.364 82.46 210.197C82.0551 210.03 81.621 209.944 81.1829 209.945V209.945Z" stroke="#121B19" stroke-linecap="round" stroke-linejoin="round"/>
<path d="M70.5125 187.727V176.762H65.0088V188.422" stroke="#121B19" stroke-linecap="round" stroke-linejoin="round"/>
<path d="M89.8799 200.356L90.4134 207.945L96.1487 207.776L95.8328 199.584L89.8799 200.356Z" fill="white" stroke="#121B19" stroke-linecap="round" stroke-linejoin="round"/>
<path d="M89.9931 210.766C89.9931 210.766 99.2104 211.138 102.25 210.766C103.198 210.654 105.409 210.633 105.95 209.846C106.216 209.467 105.739 208.014 105.739 208.014L100.93 206.554L97.6098 204.729C97.3527 204.586 97.0572 204.527 96.7649 204.561C96.4727 204.595 96.1985 204.72 95.9812 204.918L95.6021 205.262C95.446 205.404 95.3239 205.58 95.2449 205.775C95.1659 205.971 95.132 206.182 95.1458 206.393V206.554L94.5982 206.175C94.3615 206.01 94.0796 205.921 93.7909 205.922H89.8246C89.1319 207.063 88.8037 208.388 88.8839 209.72C88.8967 210.004 89.0196 210.272 89.2266 210.468C89.4337 210.663 89.7086 210.77 89.9931 210.766Z" fill="#121B19" stroke="#121B19" stroke-linecap="round" stroke-linejoin="round"/>
<path d="M71.3615 191.608L67.5566 197.884L72.1758 201.282L76.5352 194.669L71.3615 191.608Z" fill="white" stroke="#121B19" stroke-linecap="round" stroke-linejoin="round"/>
<path d="M87.3321 163.733C87.3321 163.733 81.0562 166.653 69.5083 193.638C70.1416 194.677 70.9956 195.564 72.0097 196.236C73.0239 196.908 74.1735 197.349 75.377 197.527C75.377 197.527 102.98 163.508 99.4556 157.513C96.1492 151.897 65.4297 154.003 65.4297 154.003L65.8298 167.481C65.8298 167.481 84.3065 166.541 87.3321 163.733Z" fill="#7EFDD0" stroke="#121B19" stroke-linecap="round" stroke-linejoin="round"/>
<path d="M73.2637 91.0824C73.2637 91.0824 67.746 86.9336 62.3476 90.5278C56.9492 94.1221 53.5305 102.616 56.4157 105.972C57.2876 106.961 58.3718 107.741 59.5874 108.253C60.803 108.765 62.1185 108.995 63.4357 108.927C63.4357 108.927 68.9043 113.139 71.1577 112.437C73.4111 111.735 77.23 105.881 77.3985 100.637C77.567 95.3927 79.2658 91.5247 73.2637 91.0824Z" fill="#121B19" stroke="#121B19" stroke-linecap="round" stroke-linejoin="round"/>
<path d="M67.7748 109.679C67.7748 109.679 66.2444 111.785 66.3217 113.582L59.1191 111.083C59.1191 111.083 62.1307 106.709 62.8468 102.427C63.5628 98.1446 67.7748 109.679 67.7748 109.679Z" fill="white"/>
<path d="M62.6846 104.371C62.7969 106.54 63.3866 107.46 65.1907 109.285C67.2967 111.391 68.6516 113.09 71.7053 109.285C73.727 106.758 74.3518 105.15 74.5133 104.371H62.6846Z" fill="#121B19" stroke="#121B19" stroke-linecap="round" stroke-linejoin="round"/>
<path d="M67.7748 109.679C67.7748 109.679 66.2444 111.785 66.3217 113.582L59.1191 111.083C59.1191 111.083 62.1307 106.709 62.8468 102.427C63.5628 98.1446 67.7748 109.679 67.7748 109.679Z" stroke="#121B19" stroke-linecap="round" stroke-linejoin="round"/>
<path d="M51.9578 154.831C51.9578 154.831 46.6226 166.478 55.6153 168.415C64.6079 170.353 83.604 166.127 83.604 166.127C83.604 166.127 85.1484 181.163 89.5289 202.996C91.9167 203.222 94.3257 203.03 96.6472 202.427C96.6472 202.427 96.3734 161.781 92.709 156.797C89.0445 151.813 61.6103 152.199 51.9578 154.831Z" fill="#7EFDD0" stroke="#121B19" stroke-linecap="round" stroke-linejoin="round"/>
<path d="M50.6104 154.845C50.6104 154.845 51.9371 156.334 60.7402 153.357L71.8318 152.929C71.8318 152.929 75.9736 134.171 74.6398 127.187C73.8944 123.13 72.9004 119.124 71.6633 115.189C65.7906 112.966 59.4899 112.104 53.2358 112.669C52.8971 112.703 52.5855 112.87 52.3697 113.133C52.1538 113.396 52.0513 113.734 52.0846 114.073C52.6321 119.296 54.2537 136.355 50.6104 154.845Z" fill="#121B19" stroke="#121B19" stroke-linecap="round" stroke-linejoin="round"/>
<path d="M71.72 115.189C71.72 115.189 76.3251 116.214 76.3251 121.704C76.3251 127.194 75.7916 136.109 75.7916 136.109L81.7445 144.175C81.7445 144.175 79.1963 145.579 78.8102 147.959C78.8102 147.959 69.9088 140.637 69.4034 138.131C68.8979 135.625 71.72 115.189 71.72 115.189Z" fill="#121B19" stroke="#121B19" stroke-linecap="round" stroke-linejoin="round"/>
<path d="M72.6739 134.712L73.1162 136.347L71.8877 135.182L68.2092 128.99C68.1474 128.885 68.1297 128.76 68.1599 128.641C68.1902 128.523 68.2659 128.421 68.3706 128.359C68.476 128.297 68.6014 128.279 68.7198 128.309C68.8381 128.34 68.9397 128.415 69.0024 128.52L72.6739 134.712Z" fill="white" stroke="#121B19" stroke-linecap="round" stroke-linejoin="round"/>
<path d="M63.0782 135.729C64.1545 134.983 65.119 134.087 65.9423 133.069C67.1006 131.552 67.4867 130.661 68.3993 130.963C69.3119 131.265 72.6113 132.142 72.1199 133.195C72.1358 133.646 71.9887 134.087 71.7058 134.438C71.4752 134.912 71.139 135.328 70.723 135.652C70.0701 136.129 69.8595 135.926 69.8595 135.926C69.8595 135.926 69.4032 136.305 69.1084 136.207C69.1084 136.207 68.4064 137.435 66.0547 137.906L59.7367 140.601L59.0908 136.544L63.0782 135.729Z" fill="white" stroke="#121B19" stroke-linecap="round" stroke-linejoin="round"/>
<path d="M67.529 132.332C67.808 132.591 68.1086 132.826 68.4276 133.034C68.8558 133.301 70.3581 134.087 70.3089 134.585C70.2598 135.084 69.2349 136.053 68.9049 135.989C68.575 135.926 67.3956 135.484 67.4237 135.217C67.3162 135.425 67.2404 135.647 67.1991 135.877C67.1978 136.187 67.1352 136.494 67.0147 136.779C66.8942 137.065 66.7182 137.324 66.4971 137.541" stroke="#121B19" stroke-linecap="round" stroke-linejoin="round"/>
<path d="M71.7056 134.445C71.6298 134.177 71.4572 133.947 71.2212 133.799C70.4756 133.373 69.7707 132.88 69.1152 132.325" stroke="#121B19" stroke-linecap="round" stroke-linejoin="round"/>
<path d="M72.1202 133.202C71.9547 133.038 71.7682 132.897 71.5656 132.781C70.7971 132.264 69.9843 131.815 69.1367 131.44" stroke="#121B19" stroke-linecap="round" stroke-linejoin="round"/>
<path d="M67.7607 134.908C67.7607 134.908 68.2592 134.733 68.4627 134.908C68.6663 135.084 68.6382 135.329 68.8629 135.568" stroke="#121B19" stroke-linecap="round" stroke-linejoin="round"/>
<path d="M68.4411 134.894C68.1327 134.684 67.87 134.415 67.6689 134.101" stroke="#121B19" stroke-linecap="round" stroke-linejoin="round"/>
<path d="M53.8602 128.71C53.769 130.465 52.8353 137.611 52.8353 137.611C55.9313 136.606 59.1166 135.901 62.3474 135.505C62.3474 135.505 61.856 137.387 63.2951 140.075C63.2951 140.075 50.0554 145.27 47.3316 144.716C44.6079 144.161 45.0501 138.285 46.0961 125.235C47.1421 112.185 53.2916 112.676 53.2916 112.676" fill="#121B19"/>
<path d="M53.8602 128.71C53.769 130.465 52.8353 137.611 52.8353 137.611C55.9313 136.606 59.1166 135.901 62.3474 135.505C62.3474 135.505 61.856 137.387 63.2951 140.075C63.2951 140.075 50.0554 145.27 47.3316 144.716C44.6079 144.161 45.0501 138.285 46.0961 125.235C47.1421 112.185 53.2916 112.676 53.2916 112.676" stroke="#121B19" stroke-linecap="round" stroke-linejoin="round"/>
<path d="M62.7134 140.068C62.7134 140.068 57.294 142.174 52.6748 143.578" stroke="#ADB3B1" stroke-linecap="round" stroke-linejoin="round"/>
<path d="M53.2778 128.71C53.1866 130.465 52.2529 137.611 52.2529 137.611C55.3464 136.606 58.5294 135.901 61.758 135.505" stroke="#ADB3B1" stroke-linecap="round" stroke-linejoin="round"/>
<path d="M57.4834 112.486C57.4834 112.486 59.0348 111.539 59.0348 110.282C59.0348 109.025 65.9636 112.683 67.5501 112.472C69.1366 112.262 68.2521 113.631 68.0836 114.017C67.6835 115.294 66.5322 116.874 57.4834 112.486Z" fill="#121B19" stroke="#121B19" stroke-linecap="round" stroke-linejoin="round"/>
<path d="M68.0758 114.017C67.6686 115.196 66.6156 116.706 58.8164 113.146" stroke="#ADB3B1" stroke-linecap="round" stroke-linejoin="round"/>
<path d="M75.5458 98.5448L74.8438 102.904C74.8438 102.904 74.9632 104.645 71.9165 108.45C68.8698 112.255 67.4939 110.556 65.4019 108.45C63.31 106.344 62.8607 105.431 62.8747 102.42C62.8747 102.42 61.8007 102.265 61.1408 100.314C60.4809 98.3623 62.8888 97.6041 63.4995 98.8467L67.1008 97.0425L69.3472 94.3398L70.6318 92.627L73.2643 93.6097L76.0723 95.2945L75.5458 98.5448Z" fill="white" stroke="#121B19" stroke-linecap="round" stroke-linejoin="round"/>
<path d="M72.3228 103.045C72.3228 103.045 71.1996 104.196 72.1403 105.305C73.4109 106.815 70.7363 106.351 70.7363 106.801" stroke="#121B19" stroke-linecap="round" stroke-linejoin="round"/>
<path d="M69.3255 107.299C69.3255 107.299 68.4621 107.517 66.9668 106.028" stroke="#121B19" stroke-linecap="round" stroke-linejoin="round"/>
<path d="M69.8174 102.806C69.6559 103.178 69.4032 103.431 69.2558 103.367C69.1083 103.304 69.1224 102.946 69.2558 102.574C69.3891 102.202 69.6699 101.949 69.8174 102.013C69.9648 102.076 69.9788 102.427 69.8174 102.806Z" fill="#121B19"/>
<path d="M73.1095 104.301C72.9691 104.638 72.7445 104.862 72.6111 104.806C72.4777 104.75 72.4847 104.427 72.6111 104.104C72.7375 103.781 72.9761 103.536 73.1095 103.599C73.2429 103.662 73.2569 103.964 73.1095 104.301Z" fill="#121B19"/>
<path d="M71.6076 100.012C71.2552 99.7542 70.8299 99.6152 70.3932 99.6152C69.9565 99.6152 69.5311 99.7542 69.1787 100.012" stroke="#121B19" stroke-linecap="round" stroke-linejoin="round"/>
<path d="M73.875 101.297C74.0497 101.357 74.2061 101.46 74.3291 101.598C74.452 101.736 74.5374 101.903 74.577 102.083" stroke="#121B19" stroke-linecap="round" stroke-linejoin="round"/>
<path d="M63.6744 97.0422C63.6744 97.0422 62.0949 101.058 64.2781 102.799C64.2781 102.799 66.0892 97.6248 69.8379 97.0422C73.5866 96.4595 75.124 95.2942 75.124 95.2942C75.124 95.2942 74.6747 100.405 75.6996 101.661C76.7245 102.918 76.7035 95.7786 76.7035 95.7786L75.6996 93.3286L70.2661 91.1875L65.6119 93.3707L63.6744 97.0422Z" fill="#121B19" stroke="#121B19" stroke-linecap="round" stroke-linejoin="round"/>
<path d="M62.7131 103.094C62.7131 103.094 61.969 107.558 63.6749 108.008C65.3807 108.457 61.2319 108.541 59.0838 107.551C56.9357 106.562 61.9269 102.539 61.9269 102.539L62.7131 103.094Z" fill="#121B19" stroke="#121B19" stroke-linecap="round" stroke-linejoin="round"/>
<path d="M72.4848 134.459H73.2921L70.6104 151.405H69.8031C69.6978 151.407 69.5934 151.386 69.4976 151.342C69.4018 151.298 69.317 151.234 69.2496 151.153C69.1822 151.072 69.1339 150.977 69.1082 150.875C69.0824 150.773 69.08 150.666 69.1011 150.563L71.516 135.301C71.5586 135.072 71.6775 134.864 71.8534 134.711C72.0294 134.558 72.2519 134.469 72.4848 134.459Z" fill="white" stroke="#121B19" stroke-linecap="round" stroke-linejoin="round"/>
<path d="M70.3581 151.405H80.1861C80.4209 151.399 80.6464 151.312 80.8243 151.158C81.0021 151.005 81.1214 150.794 81.1618 150.563L83.5767 135.302C83.5978 135.198 83.5954 135.092 83.5697 134.99C83.544 134.888 83.4956 134.792 83.4282 134.712C83.3608 134.631 83.276 134.566 83.1802 134.522C83.0844 134.479 82.98 134.457 82.8747 134.459H73.0748C72.8403 134.467 72.6155 134.554 72.4379 134.708C72.2603 134.861 72.1407 135.071 72.099 135.302L69.6841 150.563C69.6635 150.664 69.6654 150.768 69.6895 150.868C69.7136 150.968 69.7594 151.062 69.8238 151.142C69.8881 151.222 69.9693 151.288 70.0616 151.333C70.1539 151.379 70.2551 151.403 70.3581 151.405Z" fill="white" stroke="#121B19" stroke-linecap="round" stroke-linejoin="round"/>
<path d="M80.6913 137.449H81.5829C81.7325 137.445 81.876 137.388 81.9887 137.29C82.1013 137.191 82.1763 137.056 82.2006 136.909L82.348 136.017C82.3607 135.951 82.3583 135.883 82.341 135.818C82.3238 135.752 82.292 135.692 82.2482 135.641C82.2044 135.589 82.1496 135.549 82.0879 135.522C82.0262 135.494 81.9591 135.481 81.8917 135.484H81.0002C80.8511 135.489 80.7081 135.544 80.5946 135.641C80.4812 135.738 80.4039 135.871 80.3754 136.017L80.235 136.909C80.2211 136.975 80.2226 137.044 80.2393 137.111C80.2561 137.177 80.2876 137.238 80.3316 137.29C80.3755 137.342 80.4308 137.384 80.4931 137.411C80.5554 137.439 80.6232 137.452 80.6913 137.449V137.449Z" stroke="#121B19" stroke-linecap="round" stroke-linejoin="round"/>
<path d="M80.9371 136.466C80.9286 136.51 80.9301 136.555 80.9415 136.598C80.9529 136.641 80.9739 136.681 81.0029 136.715C81.032 136.749 81.0683 136.776 81.1092 136.793C81.1501 136.811 81.1944 136.819 81.2389 136.817C81.3359 136.812 81.4284 136.774 81.502 136.711C81.5756 136.647 81.6262 136.562 81.6461 136.466C81.6545 136.422 81.6529 136.377 81.6415 136.334C81.6301 136.29 81.6092 136.25 81.5803 136.216C81.5514 136.181 81.5152 136.154 81.4744 136.135C81.4335 136.117 81.3891 136.108 81.3443 136.108C81.2463 136.114 81.1531 136.153 81.0794 136.218C81.0057 136.283 80.9556 136.37 80.9371 136.466V136.466Z" stroke="#121B19" stroke-linecap="round" stroke-linejoin="round"/>
<path d="M81.6035 145.762C81.6035 145.762 82.5372 143.038 83.2322 143.656C83.7797 144.154 82.8461 145.762 82.8461 145.762H81.6035Z" fill="white" stroke="#121B19" stroke-linecap="round" stroke-linejoin="round"/>
<path d="M83.8787 146.814C84.0402 146.505 84.5807 145.796 84.3701 145.501C84.0261 144.954 82.4186 145.087 81.8008 145.27C81.4007 145.351 81.024 145.521 80.6987 145.768C80.6074 145.894 80.481 146.266 80.5863 146.379C80.6916 146.491 81.3866 146.287 81.6534 146.28C82.126 146.319 82.5952 146.392 83.0574 146.498C82.534 146.662 81.999 146.787 81.4568 146.87C80.8952 146.87 78.8384 146.526 79.3508 147.72C79.3508 147.72 78.5927 147.951 79.0279 148.52C79.4631 149.088 80.9373 149.039 80.9373 149.039C80.6011 149.133 80.2545 149.185 79.9054 149.194C79.3157 149.194 78.8594 148.744 78.8033 149.06C78.719 149.545 79.1613 149.952 79.7861 150.184C80.0923 150.314 80.4218 150.382 80.7548 150.382C81.0878 150.382 81.4174 150.314 81.7236 150.184C82.7696 149.804 83.4294 147.706 83.8787 146.814Z" fill="white" stroke="#121B19" stroke-linecap="round" stroke-linejoin="round"/>
<path d="M79.8203 147.902C80.3641 148.021 80.9152 148.103 81.47 148.148C81.8533 148.156 82.2339 148.082 82.5862 147.93" stroke="#121B19" stroke-linecap="round" stroke-linejoin="round"/>
<path d="M75.0474 133.392C75.2282 131.323 75.1741 129.242 74.886 127.186C74.1138 123.058 73.2152 119.611 72.6045 117.491" stroke="#ADB3B1" stroke-linecap="round" stroke-linejoin="round"/>
<path d="M64.9453 199.316C64.9453 199.316 71.1861 206.077 73.587 207.958C74.3381 208.548 75.9106 210.064 76.8372 209.931C77.2935 209.853 77.9745 208.492 77.9745 208.492L75.6228 204.069L74.5557 200.447C74.4743 200.166 74.3075 199.918 74.0785 199.737C73.8495 199.556 73.5697 199.45 73.2781 199.436H72.7656C72.558 199.426 72.3508 199.463 72.1589 199.543C71.9671 199.623 71.7955 199.745 71.6565 199.899L71.5441 200.025L71.4248 199.366C71.3729 199.083 71.2357 198.823 71.0317 198.621L68.2237 195.813C66.9386 196.126 65.7799 196.824 64.9032 197.814C64.714 198.021 64.6127 198.294 64.6205 198.574C64.6284 198.854 64.7449 199.12 64.9453 199.316Z" fill="#121B19" stroke="#121B19" stroke-linecap="round" stroke-linejoin="round"/>
<path d="M84.4043 164.518C84.4043 164.518 86.3839 161.794 87.472 161.254" stroke="#121B19" stroke-linecap="round" stroke-linejoin="round"/>
<path d="M80.3614 80.2786C80.0048 80.2736 79.6635 80.133 79.4067 79.8855C76.6271 77.1111 72.8602 75.5529 68.9329 75.5529C65.0056 75.5529 61.2387 77.1111 58.459 79.8855C58.2046 80.1317 57.8635 80.268 57.5094 80.2647C57.1553 80.2615 56.8168 80.1191 56.5668 79.8683C56.3169 79.6174 56.1758 79.2783 56.1738 78.9243C56.1719 78.5702 56.3094 78.2296 56.5566 77.976C59.8451 74.7052 64.2947 72.8691 68.9329 72.8691C73.571 72.8691 78.0206 74.7052 81.3091 77.976C81.4979 78.1641 81.6266 78.4039 81.6791 78.6652C81.7316 78.9264 81.7055 79.1974 81.6041 79.4438C81.5027 79.6902 81.3305 79.901 81.1093 80.0496C80.8882 80.1982 80.6279 80.2779 80.3614 80.2786Z" fill="#7EFDD0" stroke="#121B19" stroke-linecap="round" stroke-linejoin="round"/>
<path d="M76.7737 83.866C76.596 83.8655 76.4202 83.8299 76.2563 83.7613C76.0925 83.6926 75.9438 83.5922 75.8189 83.4659C73.9919 81.6406 71.5149 80.6153 68.9323 80.6153C66.3497 80.6153 63.8727 81.6406 62.0457 83.4659C61.9311 83.6205 61.7846 83.7487 61.6163 83.842C61.448 83.9352 61.2616 83.9914 61.0697 84.0066C60.8779 84.0218 60.685 83.9958 60.5041 83.9303C60.3231 83.8647 60.1583 83.7612 60.0207 83.6266C59.8831 83.4921 59.7759 83.3296 59.7064 83.1502C59.6368 82.9707 59.6065 82.7785 59.6174 82.5863C59.6284 82.3942 59.6803 82.2066 59.7698 82.0362C59.8593 81.8659 59.9843 81.7166 60.1363 81.5986C61.2914 80.4434 62.6627 79.5271 64.1719 78.902C65.6811 78.2768 67.2987 77.9551 68.9323 77.9551C70.5659 77.9551 72.1835 78.2768 73.6927 78.902C75.2019 79.5271 76.5733 80.4434 77.7284 81.5986C77.9142 81.7883 78.0401 82.0286 78.0905 82.2893C78.1408 82.5501 78.1135 82.8199 78.0117 83.0653C77.91 83.3106 77.7384 83.5206 77.5183 83.6692C77.2982 83.8178 77.0392 83.8985 76.7737 83.9011V83.866Z" fill="#7EFDD0" stroke="#121B19" stroke-linecap="round" stroke-linejoin="round"/>
<path d="M73.636 87.0038C73.4586 87.0063 73.2825 86.9727 73.1184 86.9051C72.9543 86.8375 72.8056 86.7374 72.6813 86.6107C71.6854 85.6196 70.3376 85.0632 68.9326 85.0632C67.5276 85.0632 66.1798 85.6196 65.1839 86.6107C64.9268 86.8376 64.5929 86.9579 64.2501 86.9472C63.9074 86.9365 63.5816 86.7956 63.3391 86.5531C63.0966 86.3106 62.9557 85.9849 62.945 85.6421C62.9343 85.2994 63.0546 84.9654 63.2815 84.7083C64.7817 83.2122 66.8139 82.3721 68.9326 82.3721C71.0513 82.3721 73.0835 83.2122 74.5837 84.7083C74.7091 84.8329 74.8087 84.9811 74.8766 85.1444C74.9446 85.3076 74.9795 85.4827 74.9795 85.6595C74.9795 85.8363 74.9446 86.0114 74.8766 86.1747C74.8087 86.3379 74.7091 86.4861 74.5837 86.6107C74.4602 86.7365 74.3127 86.8362 74.1498 86.9037C73.987 86.9713 73.8123 87.0053 73.636 87.0038Z" fill="#7EFDD0" stroke="#121B19" stroke-linecap="round" stroke-linejoin="round"/>
</svg>
