<svg width="49" height="48" viewBox="0 0 49 48" fill="none" xmlns="http://www.w3.org/2000/svg">
<rect x="1" y="0.5" width="47" height="47" rx="23.5" fill="#121B19" stroke="#121B19"/>
<path d="M14.8994 24.1964V33.5993H19.381V23.4384V20.7998H14.8994V24.1964Z" fill="white"/>
<path d="M17.1407 14.4004C16.6978 14.4004 16.2649 14.5317 15.8966 14.7778C15.5283 15.0239 15.2413 15.3736 15.0718 15.7828C14.9023 16.192 14.858 16.6422 14.9444 17.0766C15.0308 17.511 15.2441 17.91 15.5573 18.2232C15.8704 18.5364 16.2694 18.7496 16.7038 18.836C17.1382 18.9225 17.5885 18.8781 17.9977 18.7086C18.4069 18.5391 18.7566 18.2521 19.0027 17.8838C19.2487 17.5156 19.3801 17.0826 19.3801 16.6397C19.3793 16.0461 19.1431 15.4769 18.7233 15.0571C18.3035 14.6373 17.7344 14.4012 17.1407 14.4004Z" fill="white"/>
<path d="M34.0003 24.7288C33.7109 22.3158 32.5884 20.7998 29.3277 20.7998C27.3922 20.7998 26.0931 21.5173 25.5666 22.5357H25.5116V20.7998H21.9385V33.5993H25.6707V27.2545C25.6707 25.5823 25.9861 23.9621 28.0547 23.9621C30.1234 23.9621 30.2564 25.8745 30.2564 27.3616V33.5993H34.0986V26.566C34.1044 25.9521 34.0716 25.3385 34.0003 24.7288Z" fill="white"/>
</svg>
