<svg xmlns="http://www.w3.org/2000/svg" xmlns:android="http://schemas.android.com/apk/res/android" width="98dp" height="81dp" viewportWidth="98" viewportHeight="81">
	<path d="M72.1444,0.0573C65.6579,0.0678 59.4331,2.6164 54.8016,7.1578C50.1702,11.6992 47.4999,17.8728 47.362,24.3579V55.9096C47.4355,57.6535 47.1554,59.3942 46.5387,61.0271C45.9221,62.66 44.9814,64.1512 43.7735,65.4111C42.5655,66.671 41.1153,67.6736 39.5098,68.3584C37.9044,69.0433 36.177,69.3964 34.4315,69.3964C32.6861,69.3964 30.9587,69.0433 29.3533,68.3584C27.7478,67.6736 26.2975,66.671 25.0896,65.4111C23.8816,64.1512 22.941,62.66 22.3243,61.0271C21.7076,59.3942 21.4276,57.6535 21.501,55.9096V30.3699C21.5038,28.9596 21.0872,27.5804 20.3043,26.4073C19.5215,25.2343 18.4075,24.3204 17.1041,23.7818C15.8007,23.2433 14.3667,23.1043 12.9841,23.3825C11.6016,23.6608 10.3329,24.3437 9.3393,25.3446L0,34.6839L7.2971,41.9809L11.175,38.1029V56.0013C11.0772,59.1169 11.6063,62.2204 12.731,65.1275C13.8557,68.0346 15.553,70.6861 17.7223,72.9245C19.8915,75.163 22.4884,76.9428 25.3588,78.1583C28.2291,79.3737 31.3144,80 34.4315,80C37.5486,80 40.6339,79.3737 43.5043,78.1583C46.3747,76.9428 48.9715,75.163 51.1408,72.9245C53.31,70.6861 55.0074,68.0346 56.1321,65.1275C57.2568,62.2204 57.7859,59.1169 57.688,56.0013V24.8627C57.6835,21.997 58.5294,19.1944 60.1186,16.8097C61.7079,14.4251 63.969,12.5658 66.6157,11.467C69.2624,10.3683 72.1757,10.0795 74.9865,10.6375C77.7974,11.1954 80.3795,12.575 82.4058,14.6013C84.4322,16.6277 85.8116,19.2098 86.3696,22.0206C86.9276,24.8315 86.6389,27.7446 85.5402,30.3913C84.4414,33.038 82.582,35.2993 80.1973,36.8885C77.8127,38.4778 75.0101,39.3237 72.1444,39.3192H65.9029V49.5993H72.0756C75.3951,49.7003 78.701,49.1337 81.7973,47.9332C84.8937,46.7326 87.7175,44.9224 90.1012,42.6101C92.485,40.2978 94.3801,37.5304 95.6743,34.472C96.9685,31.4136 97.6353,28.1264 97.6353,24.8054C97.6353,21.4844 96.9685,18.1972 95.6743,15.1387C94.3801,12.0803 92.485,9.3128 90.1012,7.0005C87.7175,4.6882 84.8937,2.8781 81.7973,1.6776C78.701,0.477 75.3951,-0.0895 72.0756,0.0115L72.1444,0.0573Z" fill="#ECEFEE"/>
	<path d="M54.8016,7.2477C59.4331,2.7062 65.6579,0.1576 72.1444,0.1471L72.0756,0.1013C75.3951,0.0003 78.701,0.5669 81.7973,1.7674C84.8937,2.968 87.7175,4.7781 90.1012,7.0904C92.485,9.4027 94.3801,12.1701 95.6743,15.2286C96.9685,18.287 97.6353,21.5742 97.6353,24.8952C97.6353,28.2162 96.9685,31.5034 95.6743,34.5618C94.3801,37.6203 92.485,40.3876 90.1012,42.6999C87.7175,45.0122 84.8937,46.8224 81.7973,48.023C78.701,49.2236 75.3951,49.7901 72.0756,49.6891H72V39.409H72.1444C75.0101,39.4136 77.8127,38.5676 80.1973,36.9784C82.582,35.3891 84.4414,33.1279 85.5402,30.4812C86.6389,27.8345 86.9276,24.9213 86.3696,22.1105C85.8116,19.2996 84.4322,16.7175 82.4058,14.6912C80.3795,12.6648 77.7974,11.2853 74.9865,10.7273C72.1757,10.1694 69.2624,10.4581 66.6157,11.5569C63.9691,12.6556 61.7079,14.5149 60.1186,16.8996C58.5294,19.2842 57.6835,22.0868 57.688,24.9525V56.0912C57.7859,59.2067 57.2568,62.3102 56.1321,65.2173C55.0074,68.1245 53.31,70.7759 51.1408,73.0144C48.9715,75.2528 46.3747,77.0327 43.5043,78.2481C40.6339,79.4635 37.5486,80.0898 34.4315,80.0898C31.3144,80.0898 28.2291,79.4635 25.3588,78.2481C22.4884,77.0327 19.8915,75.2528 17.7223,73.0144C15.553,70.7759 13.8557,68.1245 12.731,65.2173C11.6063,62.3102 11.0772,59.2067 11.175,56.0912V38.1928L7.2971,42.0708L0,34.7738L9.3393,25.4344C10.3329,24.4336 11.6016,23.7506 12.9841,23.4724C14.3667,23.1941 15.8007,23.3331 17.1041,23.8717C18.4075,24.4103 19.5215,25.3241 20.3043,26.4972C21.0872,27.6702 21.5038,29.0495 21.501,30.4598V55.9995C21.4276,57.7433 21.7076,59.4841 22.3243,61.1169C22.941,62.7498 23.8816,64.241 25.0896,65.501C26.2975,66.7609 27.7478,67.7634 29.3533,68.4483C30.9587,69.1332 32.6861,69.4862 34.4315,69.4862C36.177,69.4862 37.9044,69.1332 39.5098,68.4483C41.1153,67.7634 42.5655,66.7609 43.7735,65.501C44.9814,64.241 45.9221,62.7498 46.5387,61.1169C47.1554,59.4841 47.4355,57.7433 47.362,55.9995V24.4477C47.4999,17.9627 50.1702,11.7891 54.8016,7.2477Z" fill="#94F5CF" fill-rule="evenOdd"/>
</svg>
