<svg width="49" height="48" viewBox="0 0 49 48" fill="none" xmlns="http://www.w3.org/2000/svg">
<rect x="1" y="0.5" width="47" height="47" rx="23.5" fill="#121B19" stroke="#121B19"/>
<path d="M32.894 22.0556C30.8111 22.0556 28.7281 22.0556 26.6452 22.0556C26.0463 22.0556 25.4475 22.0556 24.8487 22.0556C24.7341 22.0556 24.531 22.1962 24.531 22.2743C24.531 23.4824 24.531 24.6853 24.531 25.9559H29.6134C29.5457 26.2058 29.4988 26.3829 29.4415 26.5599C28.6552 28.8876 26.2495 30.0436 23.6718 29.6218C22.9202 29.5004 22.201 29.2282 21.5573 28.8216C20.9137 28.415 20.3589 27.8824 19.9264 27.2558C19.494 26.6292 19.1927 25.9217 19.0408 25.1756C18.8889 24.4296 18.8895 23.6606 19.0425 22.9148C19.1233 22.4707 19.2597 22.0385 19.4486 21.6286C19.9783 20.4711 20.8842 19.5271 22.0189 18.9502C23.1536 18.3734 24.4502 18.1979 25.6975 18.4521C26.5931 18.653 27.4218 19.0816 28.1032 19.6966L30.9048 16.8743L30.6705 16.692C29.623 15.7705 28.3797 15.0994 27.0345 14.7295C25.6893 14.3596 24.2777 14.3006 22.9063 14.557C20.947 14.8828 19.1373 15.8095 17.7277 17.2089C16.3181 18.6082 15.3782 20.4111 15.038 22.368C14.7435 24.0762 14.9237 25.8324 15.5588 27.4452C16.3311 29.4332 17.7403 31.1094 19.5661 32.2117C21.392 33.314 23.5316 33.7803 25.6506 33.5378C27.7595 33.3814 29.7372 32.4547 31.2068 30.9341C33.4147 28.5856 33.9824 25.7267 33.6283 22.6284C33.5814 22.1337 33.3731 22.0556 32.894 22.0556Z" fill="white"/>
</svg>
