<svg width="32" height="32" viewBox="0 0 32 32" fill="none" xmlns="http://www.w3.org/2000/svg">
<rect width="32" height="32" fill="#7EFDD0"/>
<path d="M9.82474 17.934L9.281 17.4174L9.82474 17.934ZM11.75 13C11.75 10.6528 13.6528 8.75 16 8.75V7.25C12.8244 7.25 10.25 9.82436 10.25 13H11.75ZM11.75 15.7564V13H10.25V15.7564H11.75ZM9.75 20C9.75 19.3992 9.98449 18.8548 10.3685 18.4506L9.281 17.4174C8.64277 18.0892 8.25 18.9995 8.25 20H9.75ZM11 20.25H10V21.75H11V20.25ZM21 20.25H11V21.75H21V20.25ZM22 20.25H21V21.75H22V20.25ZM21.6315 18.4506C22.0155 18.8548 22.25 19.3992 22.25 20H23.75C23.75 18.9995 23.3572 18.0892 22.719 17.4174L21.6315 18.4506ZM20.25 13V15.7564H21.75V13H20.25ZM16 8.75C18.3472 8.75 20.25 10.6528 20.25 13H21.75C21.75 9.82436 19.1756 7.25 16 7.25V8.75ZM22.719 17.4174C22.1171 16.7839 21.75 16.2695 21.75 15.7564H20.25C20.25 16.9385 21.0658 17.8551 21.6315 18.4506L22.719 17.4174ZM8.25 20C8.25 20.9665 9.0335 21.75 10 21.75V20.25C9.86193 20.25 9.75 20.1381 9.75 20H8.25ZM22 21.75C22.9665 21.75 23.75 20.9665 23.75 20H22.25C22.25 20.1381 22.1381 20.25 22 20.25V21.75ZM10.25 15.7564C10.25 16.2695 9.88289 16.7839 9.281 17.4174L10.3685 18.4506C10.9342 17.8551 11.75 16.9385 11.75 15.7564H10.25Z" fill="#121B19"/>
<path d="M17.7976 23.8767C17.6312 24.2179 17.3712 24.5046 17.048 24.7035C16.7247 24.9023 16.3516 25.0051 15.9721 24.9998C15.5926 24.9945 15.2224 24.8813 14.9049 24.6735C14.5873 24.4657 14.3354 24.1718 14.1786 23.8262" stroke="#121B19" stroke-width="1.5" stroke-linecap="round" stroke-linejoin="round"/>
<path d="M16 7V8" stroke="#121B19" stroke-width="1.5" stroke-linecap="round" stroke-linejoin="round"/>
</svg>
