<svg xmlns="http://www.w3.org/2000/svg" xmlns:android="http://schemas.android.com/apk/res/android" width="98dp" height="81dp" viewportWidth="98" viewportHeight="81">
	<path d="M72.1444,0.0573C65.6579,0.0678 59.4331,2.6164 54.8016,7.1578C50.1702,11.6992 47.4999,17.8728 47.362,24.3579V55.9096C47.4355,57.6535 47.1554,59.3942 46.5387,61.0271C45.9221,62.66 44.9814,64.1512 43.7735,65.4111C42.5655,66.671 41.1153,67.6736 39.5098,68.3584C37.9044,69.0433 36.177,69.3964 34.4315,69.3964C32.6861,69.3964 30.9587,69.0433 29.3533,68.3584C27.7478,67.6736 26.2975,66.671 25.0896,65.4111C23.8816,64.1512 22.941,62.66 22.3243,61.0271C21.7076,59.3942 21.4276,57.6535 21.501,55.9096V30.3699C21.5038,28.9596 21.0872,27.5804 20.3043,26.4073C19.5215,25.2343 18.4075,24.3204 17.1041,23.7818C15.8007,23.2433 14.3667,23.1043 12.9841,23.3825C11.6016,23.6608 10.3329,24.3437 9.3393,25.3446L0,34.6839L7.2971,41.9809L11.175,38.1029V56.0013C11.0772,59.1169 11.6063,62.2204 12.731,65.1275C13.8557,68.0346 15.553,70.6861 17.7223,72.9245C19.8915,75.163 22.4884,76.9428 25.3588,78.1583C28.2291,79.3737 31.3144,80 34.4315,80C37.5486,80 40.6339,79.3737 43.5043,78.1583C46.3747,76.9428 48.9715,75.163 51.1408,72.9245C53.31,70.6861 55.0074,68.0346 56.1321,65.1275C57.2568,62.2204 57.7859,59.1169 57.688,56.0013V24.8627C57.6835,21.997 58.5294,19.1944 60.1186,16.8097C61.7079,14.4251 63.969,12.5658 66.6157,11.467C69.2624,10.3683 72.1757,10.0795 74.9865,10.6375C77.7974,11.1954 80.3795,12.575 82.4058,14.6013C84.4322,16.6277 85.8116,19.2098 86.3696,22.0206C86.9276,24.8315 86.6389,27.7446 85.5402,30.3913C84.4414,33.038 82.582,35.2993 80.1973,36.8885C77.8127,38.4778 75.0101,39.3237 72.1444,39.3192H65.9029V49.5993H72.0756C75.3951,49.7003 78.701,49.1337 81.7973,47.9332C84.8937,46.7326 87.7175,44.9224 90.1012,42.6101C92.485,40.2978 94.3801,37.5304 95.6743,34.472C96.9685,31.4136 97.6353,28.1264 97.6353,24.8054C97.6353,21.4844 96.9685,18.1972 95.6743,15.1387C94.3801,12.0803 92.485,9.3128 90.1012,7.0005C87.7175,4.6882 84.8937,2.8781 81.7973,1.6776C78.701,0.477 75.3951,-0.0895 72.0756,0.0115L72.1444,0.0573Z" fill="#ECEFEE"/>
	<path d="M72.1444,0.1471C65.6579,0.1576 59.4331,2.7062 54.8016,7.2477C50.1702,11.7891 47.4999,17.9627 47.362,24.4477V55.9995C47.4355,57.7433 47.1554,59.4841 46.5387,61.1169C45.9221,62.7498 44.9814,64.241 43.7735,65.501C42.5655,66.7609 41.1153,67.7634 39.5098,68.4483C37.9044,69.1332 36.177,69.4862 34.4315,69.4862C32.6861,69.4862 30.9587,69.1332 29.3533,68.4483C27.7478,67.7634 26.2975,66.7609 25.0896,65.501C23.8816,64.241 22.941,62.7498 22.3243,61.1169C21.7076,59.4841 21.4276,57.7433 21.501,55.9995V30.4598C21.5038,29.0495 21.0872,27.6702 20.3043,26.4972C19.5215,25.3241 18.4075,24.4103 17.1041,23.8717C15.8007,23.3331 14.3667,23.1941 12.9841,23.4724C11.6016,23.7506 10.3329,24.4336 9.3393,25.4344L0,34.7738L7.2971,42.0708L11.175,38.1928V56.0912C11.0772,59.2067 11.6063,62.3102 12.731,65.2173C13.8557,68.1245 15.553,70.7759 17.7223,73.0144C19.8915,75.2528 22.4884,77.0327 25.3588,78.2481C28.2291,79.4635 31.3144,80.0898 34.4315,80.0898C37.5486,80.0898 40.6339,79.4635 43.5043,78.2481C46.3747,77.0327 48.9715,75.2528 51.1408,73.0144C53.31,70.7759 55.0074,68.1245 56.1321,65.2173C57.2568,62.3102 57.7859,59.2067 57.688,56.0912V24.9525C57.6835,22.0868 58.5294,19.2842 60.1186,16.8996C61.7079,14.5149 63.9691,12.6556 66.6157,11.5569C69.2624,10.4581 72.1757,10.1694 74.9865,10.7273C77.7974,11.2853 80.3795,12.6648 82.4058,14.6912C84.4322,16.7175 85.8116,19.2996 86.3696,22.1105C86.7507,24.0303 86.7369,25.9979 86.3397,27.8957L96.0544,33.6093C97.0989,30.8256 97.6353,27.874 97.6353,24.8952C97.6353,21.5742 96.9685,18.287 95.6743,15.2286C94.3801,12.1701 92.485,9.4027 90.1012,7.0904C87.7175,4.7781 84.8937,2.968 81.7973,1.7674C78.701,0.5669 75.3951,0.0003 72.0756,0.1013L72.1444,0.1471Z" fill="#94F5CF" fill-rule="evenOdd"/>
</svg>
