<svg width="135" height="24" viewBox="0 0 135 24" fill="none" xmlns="http://www.w3.org/2000/svg">
<g clip-path="url(#clip0_3904_38627)">
<path d="M10.5283 15.9459C10.017 16.4483 9.43618 16.8745 8.80362 17.2116C8.16755 17.513 7.46955 17.6607 6.76593 17.6428C6.15761 17.647 5.5554 17.5213 4.9995 17.2742C4.47469 17.0318 4.00223 16.6892 3.6086 16.2658C3.20132 15.8227 2.88262 15.3057 2.66974 14.7428C2.21559 13.525 2.21559 12.1843 2.66974 10.9665C2.88281 10.4078 3.20158 9.89541 3.6086 9.45737C4.00251 9.03606 4.47501 8.69586 4.9995 8.45592C5.55669 8.21362 6.15835 8.09043 6.76593 8.09427C7.46571 8.07787 8.15937 8.22804 8.7897 8.53241C9.38185 8.85092 9.93104 9.24352 10.424 9.70076L10.6813 9.94419L12.107 8.40723L11.8566 8.17076C11.5474 7.86984 11.2174 7.591 10.8691 7.33625C10.5126 7.06399 10.1279 6.83083 9.7216 6.6408C9.29242 6.45514 8.84487 6.31525 8.38634 6.22351C7.85729 6.11903 7.31912 6.0678 6.77986 6.07053C5.86679 6.06313 4.96213 6.24546 4.12323 6.606C3.33804 6.95005 2.62891 7.44647 2.03688 8.06647C1.44355 8.69262 0.971892 9.42367 0.645976 10.2223C-0.0122003 11.9203 -0.0122003 13.8029 0.645976 15.5008C0.967305 16.2957 1.43965 17.0208 2.03688 17.6359C2.64718 18.2637 3.37848 18.7611 4.18654 19.0982C4.99459 19.4353 5.86262 19.605 6.73813 19.5971C7.2805 19.6021 7.8217 19.5461 8.35156 19.4301C8.83173 19.3261 9.29841 19.1674 9.74246 18.9572C10.1634 18.7702 10.5623 18.537 10.9317 18.2618C11.3022 17.9776 11.6509 17.6661 11.9749 17.3299L12.2113 17.0864L10.8204 15.6955L10.5283 15.9459Z" fill="#121B19"/>
<path d="M21.614 10.8835C21.1328 10.397 20.5599 10.0107 19.9284 9.74704C19.2969 9.48341 18.6194 9.34766 17.9351 9.34766C17.2508 9.34766 16.5732 9.48341 15.9417 9.74704C15.3102 10.0107 14.7373 10.397 14.2561 10.8835C13.7972 11.3582 13.4358 11.9181 13.1921 12.5317C12.9379 13.1615 12.808 13.8346 12.8096 14.5138C12.8081 15.1884 12.938 15.8569 13.1921 16.4819C13.4361 17.0892 13.7977 17.6422 14.2561 18.1093C14.7193 18.5764 15.2668 18.9516 15.8696 19.215C16.5132 19.4908 17.207 19.6306 17.9072 19.6253C18.6119 19.6297 19.31 19.49 19.9588 19.215C20.5721 18.9564 21.1277 18.5781 21.5931 18.1023C22.0502 17.626 22.4156 17.0697 22.6711 16.461C23.1857 15.1922 23.1857 13.7728 22.6711 12.5039C22.4284 11.8997 22.0692 11.3491 21.614 10.8835ZM17.942 17.6989C17.5272 17.7004 17.1169 17.6126 16.7389 17.4416C16.3756 17.2765 16.0492 17.04 15.7792 16.7462C15.5021 16.4524 15.2848 16.1075 15.1393 15.7308C14.9839 15.3247 14.9061 14.893 14.9099 14.4581C14.9031 14.0282 14.9786 13.6009 15.1324 13.1994C15.2719 12.8203 15.4819 12.471 15.7513 12.1701C16.0095 11.8752 16.3271 11.6382 16.6832 11.4746C17.0701 11.3101 17.4868 11.2272 17.9072 11.2312C18.3221 11.2298 18.7324 11.3175 19.1104 11.4886C19.477 11.655 19.8077 11.8912 20.084 12.184C20.3635 12.4825 20.5831 12.8319 20.7308 13.2133C20.8853 13.6172 20.9631 14.0465 20.9603 14.479C20.9628 14.9108 20.8875 15.3396 20.7377 15.7447C20.5953 16.1161 20.3855 16.458 20.1188 16.7531C19.8546 17.0504 19.5297 17.2875 19.166 17.4486C18.7806 17.6187 18.3632 17.7041 17.942 17.6989Z" fill="#121B19"/>
<path d="M32.5044 10.5019C32.1639 10.1341 31.7458 9.84663 31.2804 9.66037C30.7694 9.45816 30.2234 9.35891 29.6739 9.36829C28.9189 9.3374 28.173 9.54148 27.5389 9.95244C27.3041 10.1171 27.0853 10.3034 26.8852 10.5088V9.56299H24.7988V19.4176H26.8852V13.854C26.8817 13.4981 26.943 13.1447 27.066 12.8108C27.1758 12.5145 27.3464 12.2444 27.5667 12.018C27.7788 11.7949 28.0377 11.6215 28.3247 11.5103C28.6299 11.3885 28.9559 11.327 29.2845 11.3295C29.583 11.308 29.8825 11.353 30.1615 11.4613C30.4405 11.5695 30.692 11.7382 30.8979 11.9553C31.3036 12.4622 31.5068 13.1016 31.4682 13.7496V19.4454H33.5545V13.3811C33.5618 12.837 33.4748 12.2958 33.2972 11.7815C33.1264 11.3037 32.8562 10.8676 32.5044 10.5019Z" fill="#121B19"/>
<path d="M43.4165 10.5021C43.0772 10.136 42.6618 9.84879 42.1995 9.66061C41.6859 9.45873 41.1378 9.35951 40.586 9.36854C39.8331 9.33632 39.0889 9.54057 38.458 9.95269C38.221 10.1173 37.9998 10.3036 37.7973 10.5091V9.56324H35.7109V19.4178H37.7973V13.8542C37.7938 13.4984 37.8551 13.1449 37.9781 12.811C38.0879 12.5147 38.2585 12.2447 38.4788 12.0182C38.6927 11.7972 38.951 11.6241 39.2369 11.5105C39.5422 11.3892 39.868 11.3278 40.1966 11.3297C40.4958 11.3115 40.7954 11.358 41.075 11.466C41.3546 11.574 41.6077 11.741 41.817 11.9556C42.2172 12.465 42.4176 13.1031 42.3803 13.7499V19.4456H44.4666V13.3813C44.4717 12.8369 44.3823 12.2956 44.2024 11.7817C44.0336 11.3045 43.7658 10.8685 43.4165 10.5021Z" fill="#121B19"/>
<path d="M54.244 10.9116C53.8456 10.4337 53.347 10.0491 52.7836 9.78501C52.1722 9.4996 51.504 9.35694 50.8294 9.36776C50.1703 9.36356 49.5181 9.50114 48.9169 9.77113C48.3466 10.0345 47.8356 10.4107 47.4147 10.8769C46.9875 11.3548 46.6547 11.9093 46.4341 12.5112C46.2007 13.1482 46.0829 13.8218 46.0864 14.5002C46.0772 15.2152 46.212 15.9247 46.4828 16.5865C46.7244 17.195 47.0863 17.7485 47.5468 18.2139C47.9935 18.6676 48.5284 19.025 49.1186 19.264C49.7221 19.5159 50.3701 19.6437 51.0241 19.6396C51.8393 19.6624 52.6481 19.4883 53.3816 19.1319C54.0152 18.7928 54.5828 18.3429 55.0577 17.8036L55.2872 17.5463L53.8963 16.3292L53.6598 16.5657C53.3244 16.9206 52.9318 17.2168 52.4984 17.4419C52.0391 17.6627 51.5335 17.77 51.0241 17.7549C50.673 17.7559 50.3245 17.6947 49.9948 17.5741C49.6685 17.4544 49.3686 17.2725 49.1116 17.0386C48.8411 16.794 48.6214 16.4986 48.4648 16.1692C48.3407 15.9087 48.2518 15.6327 48.2006 15.3486H55.3915L55.4402 15.0496C55.4468 14.957 55.4468 14.864 55.4402 14.7714V14.5767C55.4431 13.8972 55.3399 13.2214 55.1342 12.5738C54.9498 11.9665 54.6473 11.4017 54.244 10.9116ZM50.7668 11.2176C51.1287 11.2087 51.4878 11.2824 51.8169 11.4332C52.1097 11.5789 52.3699 11.7824 52.5819 12.0313C52.8018 12.2936 52.9737 12.5925 53.0896 12.9145C53.1688 13.1416 53.2315 13.374 53.2773 13.61H48.2075C48.259 13.3518 48.3383 13.1 48.444 12.8589C48.5801 12.5325 48.7706 12.2315 49.0073 11.9687C49.2322 11.7274 49.5013 11.5315 49.8001 11.3915C50.115 11.2618 50.4544 11.2024 50.7946 11.2176H50.7668Z" fill="#121B19"/>
<path d="M64.2315 16.4401C63.896 16.7987 63.5094 17.1057 63.084 17.3512C62.6587 17.5866 62.1792 17.7065 61.6931 17.6989C61.281 17.7033 60.8728 17.6179 60.497 17.4485C60.1372 17.2843 59.8152 17.0475 59.5511 16.7531C59.2753 16.4531 59.0583 16.1039 58.9113 15.7238C58.7535 15.3181 58.6733 14.8864 58.6749 14.4511C58.6705 14.0208 58.7484 13.5935 58.9044 13.1924C59.0423 12.8146 59.2525 12.4674 59.5233 12.17C59.784 11.8778 60.1009 11.6413 60.4552 11.4746C60.8182 11.3118 61.2119 11.2289 61.6097 11.2312C62.0976 11.2151 62.58 11.3381 63.0006 11.5859C63.4122 11.8503 63.7925 12.1606 64.1342 12.5108L64.3845 12.7682L65.7754 11.3077L65.5529 11.0713C65.3369 10.8242 65.1045 10.5918 64.8574 10.3758C64.5835 10.1578 64.2874 9.96896 63.9742 9.8125C63.6404 9.64585 63.2878 9.51974 62.9241 9.43693C62.5082 9.34735 62.0838 9.30305 61.6584 9.30479C60.9672 9.30038 60.2827 9.44015 59.6485 9.71512C59.0486 9.97943 58.5054 10.3573 58.049 10.8278C57.5981 11.3061 57.2418 11.8653 56.9988 12.476C56.7414 13.1049 56.6114 13.7786 56.6163 14.4581C56.6114 15.1331 56.7414 15.8023 56.9988 16.4262C57.3686 17.3585 58.0113 18.1574 58.8427 18.7182C59.6741 19.2791 60.6555 19.5759 61.6584 19.5696C62.4741 19.5933 63.2818 19.404 64.002 19.0203C64.6266 18.651 65.1859 18.181 65.6572 17.6294L65.8797 17.372L64.4888 16.0924L64.2315 16.4401Z" fill="#121B19"/>
<path d="M69.7946 6.80078H67.7082V9.58258H66.4355V11.4812H67.7082V16.6623C67.699 17.1105 67.7745 17.5565 67.9308 17.9767C68.0608 18.3354 68.2755 18.6575 68.5567 18.9155C68.8334 19.1608 69.1612 19.3413 69.5164 19.4441C69.8825 19.5493 70.262 19.6009 70.643 19.5971C70.9705 19.6006 71.2973 19.5656 71.6166 19.4928C71.91 19.4203 72.1928 19.3104 72.4581 19.1659L72.6389 19.0685V17.1282L72.1382 17.3786C71.95 17.4743 71.7518 17.5489 71.5471 17.6011C71.3554 17.644 71.1594 17.665 70.9629 17.6637C70.6403 17.6806 70.3216 17.5874 70.0588 17.3994C69.9463 17.2783 69.8618 17.1339 69.8113 16.9765C69.7608 16.819 69.7456 16.6524 69.7668 16.4884V11.4812H72.6737V9.58258H69.7668L69.7946 6.80078Z" fill="#121B19"/>
<path d="M84.0931 13.8818C84.1693 14.9058 83.8424 15.919 83.1821 16.7053C82.8539 17.0213 82.4639 17.2659 82.0367 17.4239C81.6094 17.5819 81.1541 17.6498 80.6993 17.6233C80.2316 17.6545 79.7626 17.5843 79.3245 17.4175C78.8863 17.2506 78.4894 16.9911 78.1609 16.6567C77.5094 15.8496 77.1865 14.8263 77.2568 13.7914V6.32227H75.1705V13.8818C75.16 14.7123 75.2941 15.5383 75.5669 16.3228C75.8086 17.003 76.1954 17.6224 76.7005 18.138C77.1988 18.6328 77.7993 19.0126 78.46 19.2507C79.9045 19.7327 81.4664 19.7327 82.9109 19.2507C83.5733 19.0129 84.1743 18.6303 84.6703 18.131C85.1782 17.6068 85.5651 16.9778 85.8039 16.2881C86.0815 15.4808 86.2157 14.6311 86.2003 13.7775V6.32227H84.114L84.0931 13.8818Z" fill="#121B19"/>
<path d="M98.1208 12.33C97.8725 11.7275 97.5087 11.1794 97.0498 10.7166C96.6128 10.2861 96.0953 9.94576 95.5268 9.71515C94.9776 9.48805 94.3894 9.36995 93.7951 9.36742C93.3637 9.36282 92.9342 9.4262 92.5224 9.55521C92.16 9.66976 91.8139 9.83107 91.4932 10.0351C91.1878 10.2321 90.9075 10.4656 90.6586 10.7305V9.52736H88.5723V22.2193H90.6586V18.2553C90.9103 18.5172 91.1902 18.7504 91.4932 18.9507C91.8197 19.148 92.1703 19.3023 92.5363 19.4097C92.9496 19.5306 93.3785 19.5892 93.809 19.5836C94.411 19.5834 95.0069 19.4628 95.5616 19.2289C96.1257 18.9946 96.6384 18.652 97.0707 18.2205C97.5273 17.7573 97.8888 17.2092 98.1347 16.607C98.6631 15.2207 98.6631 13.6885 98.1347 12.3022L98.1208 12.33ZM96.4239 14.4929C96.433 14.9672 96.3528 15.4391 96.1875 15.8838C96.0506 16.2538 95.84 16.5921 95.5685 16.8783C95.3147 17.1433 95.0062 17.3497 94.6644 17.4833C94.309 17.628 93.9285 17.7013 93.5447 17.6989C93.1688 17.6993 92.7969 17.6212 92.4529 17.4694C92.0966 17.3165 91.7714 17.0996 91.4932 16.8296C91.1953 16.5441 90.9587 16.201 90.7977 15.8212C90.6314 15.4007 90.5488 14.9519 90.5543 14.4998C90.5491 14.0523 90.6319 13.6081 90.7977 13.1924C91.1054 12.454 91.6893 11.8651 92.4251 11.5511C92.7691 11.3994 93.141 11.3212 93.5169 11.3216C93.8935 11.3203 94.2664 11.3954 94.6131 11.5424C94.9598 11.6895 95.273 11.9054 95.5337 12.177C95.8055 12.4696 96.018 12.8121 96.1596 13.1854C96.3271 13.6014 96.4167 14.0446 96.4239 14.4929Z" fill="#121B19"/>
<path d="M127.329 0C125.358 0.00333872 123.468 0.779577 122.063 2.16191C120.659 3.54424 119.853 5.42234 119.818 7.39264V16.9551C119.818 17.9935 119.405 18.9894 118.671 19.7237C117.937 20.458 116.941 20.8705 115.903 20.8705C114.864 20.8705 113.868 20.458 113.134 19.7237C112.4 18.9894 111.987 17.9935 111.987 16.9551V9.18692C111.987 8.75896 111.861 8.34056 111.623 7.98465C111.385 7.62874 111.048 7.35134 110.652 7.18754C110.257 7.02374 109.822 6.98089 109.402 7.06444C108.982 7.148 108.597 7.35419 108.294 7.65692L105.464 10.4874L107.675 12.7059L108.858 11.5236V16.9551C108.858 18.8235 109.6 20.6154 110.921 21.9366C112.242 23.2578 114.034 24 115.903 24C117.771 24 119.563 23.2578 120.884 21.9366C122.205 20.6154 122.948 18.8235 122.948 16.9551V7.5387C122.948 6.67078 123.205 5.82233 123.687 5.10068C124.169 4.37903 124.855 3.81661 125.656 3.48447C126.458 3.15233 127.341 3.06539 128.192 3.23471C129.043 3.40403 129.825 3.82199 130.439 4.4357C131.053 5.04942 131.47 5.83135 131.64 6.68259C131.809 7.53384 131.722 8.41617 131.39 9.21803C131.058 10.0199 130.495 10.7052 129.774 11.1874C129.052 11.6696 128.204 11.927 127.336 11.927H125.458V15.0565H127.336C129.289 14.9971 131.143 14.1793 132.503 12.7766C133.864 11.3739 134.625 9.49644 134.625 7.54218C134.625 5.58792 133.864 3.71048 132.503 2.30775C131.143 0.905028 129.289 0.0872771 127.336 0.0278452L127.329 0Z" fill="#121B19"/>
</g>
<defs>
<clipPath id="clip0_3904_38627">
<rect width="134.681" height="24" fill="white" transform="translate(0.15918)"/>
</clipPath>
</defs>
</svg>
