<svg width="32" height="24" viewBox="0 0 32 24" fill="none" xmlns="http://www.w3.org/2000/svg">
<g clip-path="url(#clip0_3936_11371)">
<rect width="32" height="24" fill="#7EFDD0"/>
<path d="M21.865 -0.000220221C19.8991 0.00296943 18.0125 0.77538 16.6088 2.15175C15.2052 3.52813 14.3959 5.39918 14.3541 7.36462V16.9271C14.3764 17.4556 14.2915 17.9832 14.1046 18.478C13.9177 18.9729 13.6326 19.4249 13.2665 19.8067C12.9004 20.1886 12.4609 20.4924 11.9743 20.7C11.4878 20.9075 10.9642 21.0145 10.4352 21.0145C9.90625 21.0145 9.38272 20.9075 8.89616 20.7C8.40959 20.4924 7.97004 20.1886 7.60394 19.8067C7.23785 19.4249 6.95277 18.9729 6.76587 18.478C6.57897 17.9832 6.4941 17.4556 6.51637 16.9271V9.1867C6.51719 8.75928 6.39095 8.34126 6.15368 7.98575C5.91641 7.63023 5.57881 7.35326 5.18379 7.19004C4.78877 7.02681 4.35415 6.98469 3.93513 7.06902C3.51611 7.15335 3.13162 7.36033 2.83049 7.66366L0 10.4941L2.21154 12.7057L3.38684 11.5304V16.9549C3.35718 17.8991 3.51754 18.8397 3.85841 19.7208C4.19927 20.6018 4.7137 21.4054 5.37113 22.0838C6.02856 22.7622 6.81561 23.3017 7.68554 23.67C8.55546 24.0384 9.49054 24.2282 10.4352 24.2282C11.3799 24.2282 12.315 24.0384 13.1849 23.67C14.0549 23.3017 14.8419 22.7622 15.4993 22.0838C16.1568 21.4054 16.6712 20.6018 17.0121 19.7208C17.3529 18.8397 17.5133 17.8991 17.4836 16.9549V7.5176C17.4823 6.64909 17.7386 5.7997 18.2203 5.07698C18.7019 4.35427 19.3872 3.79076 20.1894 3.45776C20.9915 3.12476 21.8744 3.03725 22.7263 3.20635C23.5782 3.37545 24.3608 3.79355 24.9749 4.40768C25.589 5.02181 26.0071 5.80437 26.1762 6.65627C26.3453 7.50816 26.2578 8.39105 25.9248 9.19319C25.5918 9.99533 25.0283 10.6806 24.3056 11.1623C23.5829 11.644 22.7335 11.9003 21.865 11.899H19.9733V15.0146H21.8441C22.8501 15.0452 23.8521 14.8735 24.7905 14.5096C25.7289 14.1458 26.5847 13.5971 27.3072 12.8963C28.0296 12.1956 28.604 11.3569 28.9962 10.4299C29.3885 9.503 29.5905 8.50674 29.5905 7.50024C29.5905 6.49374 29.3885 5.49748 28.9962 4.57055C28.604 3.64362 28.0296 2.80488 27.3072 2.10409C26.5847 1.40329 25.7289 0.854708 24.7905 0.490848C23.8521 0.126989 22.8501 -0.0447094 21.8441 -0.0141004L21.865 -0.000220221Z" fill="#121B19"/>
</g>
<defs>
<clipPath id="clip0_3936_11371">
<rect width="32" height="24" fill="white"/>
</clipPath>
</defs>
</svg>
